<?xml version="1.0" encoding="utf-8"?>
<!-- Generator: Adobe Illustrator 26.0.0, SVG Export Plug-In . SVG Version: 6.00 Build 0)  -->
<svg version="1.1" xmlns="http://www.w3.org/2000/svg" xmlns:xlink="http://www.w3.org/1999/xlink" x="0px" y="0px"
	 viewBox="0 0 446.3 354.2" style="enable-background:new 0 0 446.3 354.2;" xml:space="preserve">
<style type="text/css">
	.st0{fill:#FFFFFF;}
	.st1{fill:#1D1D1B;}
	.st2{clip-path:url(#SVGID_00000103978312251983706650000017397778967464436359_);}
	.st3{clip-path:url(#SVGID_00000143597011431651175050000002825587994184290690_);}
	.st4{fill:none;}
	.st5{fill:#56BEC2;}
</style>
<g id="Layer_2">
	<polygon class="st0" points="170.2,143.5 126.1,194.8 160.2,194.8 160.3,201.5 172.4,201.5 172.4,176.8 160,176.8 160.2,183.7 
		152,183.7 170.2,162 	"/>
	<polygon class="st0" points="67.1,143.5 23,194.8 57.1,194.8 57.1,201.5 69.3,201.5 69.3,176.8 57.1,176.8 57.1,183.7 48.9,183.7 
		67.1,162 	"/>
	<path class="st0" d="M131.4,172c-0.1,3.9-1.2,7.6-2.5,10.7c-3,7.4-8.8,13.6-16.2,16.7c-3.4,1.4-7.1,2.1-10.8,2.1
		c-16.3,0-29.5-13.2-29.5-29.5s13.7-29.4,29.9-29.4c10.9,9.9,12,22.8,12,22.8c-3.9-2.7-7.8-5.5-12.8-6.7c-5.1,2.1-8.3,4-10.6,5.7
		c-1.3,5.4-1.3,10.5-0.2,15.4c4.3,3,8.1,5,11.2,5.9c7.2-3,13.7-6.8,18.3-13.2c1.6-2.2,3.1-4.3,4.4-6.6c1.2-2.1,3.1-7.9,3.2-8.4
		C127.8,157.3,131.5,163.2,131.4,172"/>
	<path class="st0" d="M198.3,172.5v29.4h-13.7v-42.2c0,0,16.7-0.2,18.7,0c5.2,0.6,9.8,2.5,13,4.9c5.3,3.9,7.9,9.2,7.9,15.9
		c0,6.4-2.2,11.6-6.7,15.7c-3.9,3.5-8.3,5.5-14.1,6c-0.9,0.1-0.9,0.1-2.8,0v-12.4c0,0,1.1-0.2,2.8-0.7c4.5-1.2,6.8-4,6.8-8.5
		c0-4-2.8-6.6-6.8-7.9C201.6,172,198.3,172.5,198.3,172.5"/>
	<rect x="230.6" y="159.7" class="st0" width="13.7" height="42.2"/>
	<path class="st0" d="M273,176.2h17.1v12.2c0,4.1-1.5,7.6-4.8,10.4c-3.3,2.8-7.3,4.2-12.2,4.2c-6.2,0-11.6-2.2-15.9-6.5
		c-4.4-4.4-6.5-9.7-6.5-15.9c0-6.3,2.2-11.5,6.7-15.7c4.4-4.2,10-6.2,16.6-6.2h5.2v13.1h-3.5c-3.2,0-5.8,0.2-7.9,2.1
		c-2,1.8-3,4.2-3,7.1c0,3,0.9,5.4,2.8,7.1c1.9,1.8,4.4,2.6,7.7,2.6h2.6v-4.9h-1.6H273V176.2z"/>
	<rect x="295.8" y="159.7" class="st0" width="13.7" height="42.2"/>
	<polygon class="st0" points="338.7,171.8 338.7,201.9 325,201.9 325,171.8 314.5,171.8 314.5,159.7 349.1,159.7 349.1,171.8 	"/>
	<path class="st0" d="M370.9,180.7v11.1h-3.9v10.1h-13.7V175c0-5.2,1.5-9.2,4.6-12.1c3.1-2.9,7.4-4.3,13-4.3c5.4,0,9.4,1.3,12,3.9
		c2.6,2.6,3.9,6.6,3.9,12.1v27.3h-13.7v-26.5c0-1.6-0.2-2.8-0.6-3.4c-0.4-0.6-1.2-1-2.3-1c-2.1,0-3.2,1.5-3.2,4.4v5.3H370.9z"/>
	<polygon class="st0" points="394.1,159.7 407.8,159.7 407.8,184.8 407.8,189.6 412.9,189.6 413.6,189.6 413.6,201.9 409.9,201.9 
		394.1,201.9 394.1,186.8 	"/>
</g>
<g id="Layer_1">
	<rect x="564.9" y="162.8" class="st1" width="283.7" height="258.4"/>
	<rect x="848.6" y="-95.6" class="st1" width="284.5" height="258.3"/>
	<g>
		<path class="st0" d="M643.4,278.3c0,0,1.6-0.6,4.3-0.8c2.7-0.2,6.5,0.3,10.1,2.3c0.5,0.3,0.9,0.5,1.3,0.8l0.6,0.4l0.4,0.3
			c0.1,0.2-0.1-0.5-0.2-0.9c-0.1-0.4-0.2-0.9-0.4-1.3c-0.5-1.7-1.2-3.1-1.9-4.3c-0.7-1.1-1.4-2-1.9-2.6c-0.2-0.3-0.4-0.5-0.6-0.6
			c-0.1-0.1-0.2-0.2-0.2-0.2c0,0,0.1,0.1,0.2,0.2c0.1,0.1,0.4,0.3,0.6,0.6c0.5,0.5,1.2,1.4,1.9,2.5c0.7,1.1,1.5,2.6,2,4.3
			c0.1,0.4,0.3,0.9,0.4,1.3c0.1,0.2,0.1,0.5,0.2,0.7l0.1,0.5c0,0.2,0.2,0.6-0.1,0.3c-0.2-0.2-0.5-0.4-0.8-0.6l-0.6-0.4
			c-0.4-0.3-0.8-0.5-1.3-0.8c-3.6-2-7.4-2.5-10-2.4c-1.3,0.1-2.4,0.2-3.1,0.4C643.8,278.2,643.4,278.4,643.4,278.3"/>
		<path class="st0" d="M654.8,290.8c0,0-0.1,0-0.4-0.1c-0.3-0.1-0.6-0.2-1.1-0.4c-1-0.4-2.2-1-3.6-2.1c-0.2-1.1-0.3-2.2-0.3-3.4
			c0-1.2,0.1-2.3,0.3-3.5c1.4-1.1,2.7-1.7,3.6-2.1c0.5-0.2,0.8-0.3,1.1-0.4c0.3-0.1,0.4-0.1,0.4-0.1c0,0-0.5,0.2-1.5,0.7
			c-0.9,0.4-2.2,1.1-3.5,2.1c-0.2,0.9-0.3,2.1-0.3,3.3c0,1.2,0.1,2.4,0.3,3.3c1.3,1,2.6,1.7,3.5,2.1
			C654.3,290.5,654.8,290.7,654.8,290.8"/>
		<path class="st0" d="M649.8,288.1c0,0,0.2,0.6,0.5,1.6c0.3,1,0.8,2.3,1.5,3.6c0.7,1.4,1.5,2.5,2.1,3.3c0.6,0.8,1.1,1.2,1,1.3
			c0,0-0.1-0.1-0.3-0.3c-0.2-0.2-0.5-0.5-0.8-0.9c-0.7-0.8-1.5-1.9-2.2-3.3c-0.7-1.4-1.2-2.7-1.4-3.7c-0.1-0.5-0.2-0.9-0.2-1.2
			C649.8,288.2,649.8,288.1,649.8,288.1"/>
		<path class="st0" d="M643.2,290.8c0,0,0-0.2,0.1-0.5c0.1-0.3,0.2-0.7,0.4-1.2c0.4-1,1-2.3,2-3.7c0.9-1.3,2-2.4,2.8-3.1
			c0.4-0.3,0.7-0.6,1-0.8c0.2-0.2,0.4-0.3,0.4-0.2c0,0-0.5,0.4-1.3,1.2c-0.8,0.7-1.8,1.8-2.7,3.1c-0.9,1.3-1.6,2.6-2,3.6
			C643.4,290.1,643.2,290.8,643.2,290.8"/>
		<path class="st0" d="M655,271.5c0,0-0.3,0-0.9,0.1c-0.6,0.1-1.4,0.1-2.5,0.4c-1,0.3-2.3,0.8-3.6,1.6c-1.3,0.8-2.7,2-3.8,3.6
			c-1.1,1.6-2,3.6-2.3,5.9c-0.3,2.3,0,4.8,1.1,7.1c1.1,2.3,2.9,4.5,5.3,5.9c1.2,0.7,2.5,1.2,4,1.5c0.7,0.2,1.4,0.2,2.2,0.2
			c0.4,0,0.7,0.1,1.1,0l1.1-0.1c2.3-0.3,4.5-1.3,6.3-2.8c1.8-1.4,3.1-3.3,3.9-5.2c0.9-1.9,1.2-4,1.2-6c-0.1-0.5-0.1-1-0.2-1.4
			c0-0.5-0.2-0.9-0.3-1.4l-0.2-0.7l-0.3-0.6l-0.3-0.6l-0.1-0.3c0,0,0,0,0-0.1c-0.1,0.2-0.2,0.5-0.2,0.7c-0.1,0.3-0.2,0.6-0.4,0.9
			c-0.2,0.6-0.5,1.2-0.8,1.7c-0.6,1.1-1.2,2-1.9,2.9c-1.4,1.7-2.8,2.9-4.1,3.8c-1.3,0.9-2.4,1.4-3.1,1.7c-0.8,0.3-1.2,0.4-1.2,0.4
			s0.1,0,0.3-0.1c0.2-0.1,0.5-0.2,0.9-0.4c0.7-0.3,1.8-0.9,3.1-1.8c1.3-0.9,2.7-2.1,4.1-3.8c0.7-0.8,1.3-1.8,1.9-2.9
			c0.3-0.5,0.5-1.1,0.8-1.7c0.1-0.3,0.2-0.6,0.3-0.9l0.2-0.5l0.1-0.3l0.1-0.5c0.1,0.2,0.2,0.3,0.3,0.5l0.1,0.3l0.3,0.6l0.3,0.6
			l0.2,0.7c0.1,0.5,0.3,0.9,0.3,1.4c0.1,0.5,0.1,1,0.2,1.5c0.1,2-0.3,4.1-1.2,6.1c-0.9,2-2.2,3.8-4,5.3c-1.8,1.5-4,2.5-6.4,2.8
			l-1.1,0.1c-0.4,0-0.7,0-1.1,0c-0.7,0-1.5-0.1-2.2-0.3c-1.4-0.3-2.8-0.9-4-1.6c-2.5-1.4-4.3-3.6-5.4-6c-1.1-2.4-1.4-4.9-1.1-7.2
			c0.3-2.3,1.2-4.4,2.3-6c1.1-1.6,2.5-2.8,3.9-3.6c1.3-0.8,2.6-1.3,3.7-1.6c1.1-0.3,1.9-0.3,2.5-0.4
			C654.7,271.4,655,271.5,655,271.5"/>
		<path class="st0" d="M654.8,290.8c0,0,0.6,0.2,1.7,0.4c1,0.2,2.5,0.5,4.2,0.5c1.6,0,3.1-0.2,4.2-0.4c1.1-0.2,1.7-0.4,1.7-0.3
			c0,0-0.1,0.1-0.4,0.2c-0.3,0.1-0.7,0.2-1.2,0.3c-1.1,0.2-2.5,0.5-4.2,0.4c-1.7,0-3.1-0.3-4.2-0.6c-0.5-0.1-0.9-0.3-1.2-0.4
			C655,290.9,654.8,290.8,654.8,290.8"/>
		<path class="st0" d="M641.2,269.6c0.1,0-5.1,6.1-11.5,13.6c-6.4,7.5-11.6,13.5-11.7,13.4c-0.1,0,5.1-6.1,11.5-13.6
			C636,275.5,641.2,269.5,641.2,269.6"/>
		<path class="st0" d="M639.3,267c0.1,0,0.1,3.4,0.1,7.5c0,4.2-0.1,7.5-0.1,7.5s-0.1-3.4-0.1-7.5C639.2,270.3,639.3,267,639.3,267"
			/>
		<path class="st0" d="M640.2,284.1c0.1,0,0.1,3.5,0.1,7.7c0,4.3-0.1,7.7-0.1,7.7s-0.1-3.5-0.1-7.7
			C640.1,287.5,640.2,284.1,640.2,284.1"/>
		<path class="st0" d="M634.7,286.5c0.1,0,0.1,3.2,0.1,7.2c0,4-0.1,7.2-0.1,7.2c-0.1,0-0.1-3.2-0.1-7.2
			C634.6,289.7,634.7,286.5,634.7,286.5"/>
		<path class="st0" d="M642.2,294.9c0,0.1-6.2,0.1-13.8,0.1c-7.6,0-13.8-0.1-13.8-0.1c0-0.1,6.2-0.1,13.8-0.1
			C636,294.7,642.2,294.8,642.2,294.9"/>
		<path class="st0" d="M635.5,290c0,0.1-1.3,0.1-3,0.1s-3-0.1-3-0.1c0-0.1,1.3-0.1,3-0.1S635.5,289.9,635.5,290"/>
		<path class="st0" d="M640.2,286.9c0,0.1-1.4,0.1-3.1,0.1c-1.7,0-3.1-0.1-3.1-0.1c0-0.1,1.4-0.1,3.1-0.1
			C638.8,286.7,640.2,286.8,640.2,286.9"/>
		<path class="st0" d="M640.9,297.9c0,0.1-1.7,0.1-3.9,0.1c-2.1,0-3.9-0.1-3.9-0.1c0-0.1,1.7-0.1,3.9-0.1
			C639.2,297.8,640.9,297.8,640.9,297.9"/>
	</g>
	<g>
		<defs>
			<path id="SVGID_1_" d="M629.1,292.3l10.8-12.7L629.1,292.3z"/>
		</defs>
		<clipPath id="SVGID_00000141416092746544896540000011375310488225376907_">
			<use xlink:href="#SVGID_1_"  style="overflow:visible;"/>
		</clipPath>
		<g style="clip-path:url(#SVGID_00000141416092746544896540000011375310488225376907_);">
			<g>
				<defs>
					<rect id="SVGID_00000165235466881390252850000002728961887601729432_" x="629.1" y="279.6" width="10.8" height="12.7"/>
				</defs>
				<clipPath id="SVGID_00000008123019419166242720000015976799775677019016_">
					<use xlink:href="#SVGID_00000165235466881390252850000002728961887601729432_"  style="overflow:visible;"/>
				</clipPath>
				<g style="clip-path:url(#SVGID_00000008123019419166242720000015976799775677019016_);">
					<defs>
						<rect id="SVGID_00000075129836360515105050000015497409324728830137_" x="629.1" y="279.6" width="10.8" height="12.7"/>
					</defs>
					<clipPath id="SVGID_00000106839347892260610070000004470251489970718851_">
						<use xlink:href="#SVGID_00000075129836360515105050000015497409324728830137_"  style="overflow:visible;"/>
					</clipPath>
					<g style="clip-path:url(#SVGID_00000106839347892260610070000004470251489970718851_);">
						
							<image style="overflow:visible;" width="46" height="54" xlink:href="7E1C6FB8.jpg"  transform="matrix(0.24 0 0 0.24 629.04 279.59)">
						</image>
					</g>
				</g>
			</g>
		</g>
	</g>
	<path class="st0" d="M639.9,279.6c0.1,0-2.3,2.9-5.3,6.4c-3,3.5-5.4,6.3-5.5,6.3s2.3-2.9,5.3-6.4
		C637.3,282.4,639.8,279.6,639.9,279.6"/>
	<path class="st0" d="M688.8,268c0.1,0-5.3,6.4-12,14.2c-6.7,7.8-12.2,14.1-12.2,14s5.3-6.4,12-14.2
		C683.3,274.2,688.8,267.9,688.8,268"/>
	<path class="st0" d="M685.5,269c0.1,0,0.1,2.9,0.1,6.5s-0.1,6.5-0.1,6.5s-0.1-2.9-0.1-6.5S685.5,269,685.5,269"/>
	<path class="st0" d="M718.8,273.6c0.1,0,0.1,6.8,0.1,15.3c0,8.4-0.1,15.3-0.1,15.3s-0.1-6.8-0.1-15.3
		C718.6,280.4,718.7,273.6,718.8,273.6"/>
	<path class="st0" d="M742,273.8c0.1,0,0.1,6.1,0.1,13.5c0,7.5-0.1,13.6-0.1,13.6s-0.1-6.1-0.1-13.6
		C741.8,279.9,741.9,273.8,742,273.8"/>
	<path class="st0" d="M748,276.5c0.1,0,0.1,6.1,0.1,13.5c0,7.5-0.1,13.6-0.1,13.6s-0.1-6.1-0.1-13.6
		C747.9,282.6,747.9,276.5,748,276.5"/>
	<path class="st0" d="M750.1,297.9c0,0.1-2.4,0.1-5.4,0.1c-3,0-5.4-0.1-5.4-0.1c0-0.1,2.4-0.1,5.4-0.1
		C747.7,297.8,750.1,297.8,750.1,297.9"/>
	<path class="st0" d="M755,281.9c0.1,0,0.1,4.4,0.1,9.9c0,5.5-0.1,9.9-0.1,9.9s-0.1-4.4-0.1-9.9C754.9,286.4,755,281.9,755,281.9"/>
	<path class="st0" d="M767.7,286.6c0.1,0,0.1,3.7,0.1,8.3s-0.1,8.3-0.1,8.3s-0.1-3.7-0.1-8.3S767.6,286.6,767.7,286.6"/>
	<path class="st0" d="M786,274.7c0.1,0,0.1,5.7,0.1,12.8c0,7.1-0.1,12.8-0.1,12.8s-0.1-5.7-0.1-12.8
		C785.9,280.4,785.9,274.7,786,274.7"/>
	<path class="st0" d="M797.6,297.9c0,0.1-3.1,0.1-7,0.1s-7-0.1-7-0.1c0-0.1,3.1-0.1,7-0.1S797.6,297.8,797.6,297.9"/>
	<path class="st0" d="M773.9,291.7c0.1,0,0.1,2.1,0.1,4.6c0,2.6-0.1,4.6-0.2,4.6c-0.1,0-0.1-2.1-0.1-4.6
		C773.7,293.8,773.8,291.7,773.9,291.7"/>
	<path class="st0" d="M766.5,297.9c0-0.1,2.1-0.1,4.6-0.1s4.6,0.1,4.6,0.1c0,0.1-2.1,0.1-4.6,0.1S766.5,298,766.5,297.9"/>
	<path class="st0" d="M761.2,282.3c0.1,0,0.1,4.1,0.1,9.1c0,5-0.1,9.1-0.1,9.1s-0.1-4.1-0.1-9.1C761,286.4,761.1,282.3,761.2,282.3"
		/>
	<path class="st0" d="M734.5,276c0.1,0,0.1,2.2,0.1,4.9c0,2.7-0.1,4.9-0.1,4.9c-0.1,0-0.1-2.2-0.1-4.9
		C734.3,278.2,734.4,276,734.5,276"/>
	<path class="st0" d="M712.7,274c0.1,0,0.1,6,0.1,13.5s-0.1,13.5-0.1,13.5s-0.1-6-0.1-13.5S712.6,274,712.7,274"/>
	<path class="st0" d="M692.1,275.4c0.1,0,0.1,6,0.1,13.5s-0.1,13.5-0.1,13.5s-0.1-6-0.1-13.5S692,275.4,692.1,275.4"/>
	<path class="st0" d="M711.5,278.9c0-0.1,2-0.1,4.5-0.1c2.5,0,4.5,0.1,4.5,0.1c0,0.1-2,0.1-4.5,0.1C713.5,279,711.5,279,711.5,278.9
		"/>
	<path class="st0" d="M739.7,278.9c0-0.1,2-0.1,4.5-0.1s4.5,0.1,4.5,0.1c0,0.1-2,0.1-4.5,0.1S739.7,279,739.7,278.9"/>
	<path class="st0" d="M710.8,297.9c0-0.1,2-0.1,4.5-0.1c2.5,0,4.5,0.1,4.5,0.1c0,0.1-2,0.1-4.5,0.1C712.9,298,710.8,298,710.8,297.9
		"/>
	<path class="st0" d="M686.4,284.1c0.1,0,0.1,3.5,0.1,7.7c0,4.3-0.1,7.7-0.1,7.7s-0.1-3.5-0.1-7.7
		C686.3,287.5,686.4,284.1,686.4,284.1"/>
	<path class="st0" d="M681,286.5c0.1,0,0.1,3.2,0.1,7.2c0,4-0.1,7.2-0.1,7.2s-0.1-3.2-0.1-7.2C680.8,289.7,680.9,286.5,681,286.5"/>
	<path class="st0" d="M689.8,294.9c0,0.1-5.7,0.1-12.7,0.1c-7,0-12.7-0.1-12.7-0.1c0-0.1,5.7-0.1,12.7-0.1
		C684.1,294.7,689.8,294.8,689.8,294.9"/>
	<path class="st0" d="M681.8,290c0,0.1-1.3,0.1-3,0.1c-1.6,0-3-0.1-3-0.1c0-0.1,1.3-0.1,3-0.1C680.4,289.9,681.8,289.9,681.8,290"/>
	<path class="st0" d="M686.4,286.9c0,0.1-1.4,0.1-3.1,0.1c-1.7,0-3.1-0.1-3.1-0.1c0-0.1,1.4-0.1,3.1-0.1
		C685.1,286.7,686.4,286.8,686.4,286.9"/>
	<path class="st0" d="M687.2,297.9c0,0.1-1.7,0.1-3.9,0.1c-2.1,0-3.9-0.1-3.9-0.1c0-0.1,1.7-0.1,3.9-0.1
		C685.4,297.8,687.2,297.8,687.2,297.9"/>
	<path class="st0" d="M687,278.6c0.1,0-2.5,3.2-5.7,7c-3.2,3.8-5.9,6.8-5.9,6.8c-0.1,0,2.5-3.2,5.7-7
		C684.3,281.6,686.9,278.6,687,278.6"/>
	<path class="st0" d="M692.1,297.9c0,0,0.1,0,0.4,0c0.3,0,0.7,0,1.2,0c1,0,2.5,0,4.5,0c0-1.7,0-3.7,0-6c0-1.2,0-2.4,0-3.7
		c0-0.6,0-1.3,0-2c0-0.3,0-0.7,0-1v-0.3v-0.1c0-0.1-0.1-0.2,0.1-0.2l0.3,0l0.3,0c1.4-0.2,3,0.3,4,1.5c0.5,0.6,0.8,1.4,0.8,2.2
		c0,0.8-0.1,1.6-0.6,2.3c-0.4,0.7-1.1,1.2-1.9,1.5c-0.4,0.2-0.8,0.3-1.2,0.3l-0.6,0.1c-0.1,0,0,0,0,0v0.1v0.3c0,1.6,0,3.3,0,4.9l0,0
		c2.6,0.1,5.3-0.7,7.1-2.4c1-0.8,1.7-1.8,2.3-2.9c0.5-1.1,0.8-2.2,0.9-3.4c0.2-2.3-0.4-4.5-1.7-6.2c-1.3-1.6-3-2.6-4.6-3.2
		c-0.8-0.3-1.6-0.5-2.4-0.6c-0.8-0.1-1.5-0.1-2.2-0.1c-1.4,0-2.6,0-3.6,0c-1,0-1.7,0-2.3,0c-0.5,0-0.8,0-0.8,0s0.3,0,0.8,0
		c0.5,0,1.3,0,2.3,0c1,0,2.2,0,3.6,0c0.7,0,1.5,0,2.2,0.1c0.8,0.1,1.6,0.3,2.4,0.6c1.7,0.6,3.4,1.6,4.7,3.2c1.3,1.6,1.9,4,1.7,6.3
		c-0.1,1.2-0.4,2.4-0.9,3.5c-0.5,1.1-1.3,2.1-2.3,3c-1.9,1.7-4.6,2.6-7.3,2.5l-0.3,0c0-1.8,0-3.5,0-5.2l0-0.3v-0.3
		c0.1,0,0.2-0.1,0.2-0.1l0.6-0.1c0.4-0.1,0.8-0.2,1.2-0.3c0.7-0.3,1.4-0.8,1.8-1.4c0.8-1.3,0.7-3.1-0.3-4.2
		c-0.5-0.5-1.1-0.9-1.8-1.2c-0.7-0.3-1.4-0.3-2.1-0.2l-0.4,0c0-0.1,0,0.2,0,0.4c0,0.3,0,0.7,0,1c0,0.7,0,1.3,0,2c0,1.3,0,2.5,0,3.7
		c0,2.3,0,4.4,0,6.2c-2,0-3.5,0-4.6,0c-0.5,0-0.9,0-1.2,0C692.2,297.9,692.1,297.9,692.1,297.9"/>
	<path class="st0" d="M736.2,278.5c0,0-0.3,0-0.9,0c-0.6,0-1.4,0-2.5,0c-1.1,0-2.4,0-3.9,0.4c-1.5,0.4-3.1,1.2-4.4,2.6
		c-1.4,1.4-2.4,3.3-2.6,5.6c-0.2,2.3,0.2,4.8,1.8,6.9c1.5,2.1,3.9,3.7,6.6,4.1c1.4,0.2,2.8,0.1,4.2-0.3c1.4-0.4,2.6-1.2,3.5-2.4
		c0.5-0.6,0.8-1.3,1-2.1c0.2-0.8,0.2-1.5,0.2-2.3c0-1.5,0-3,0-4.5c-2.6,0-5.1,0-7.4,0c0,1.4,0,2.8,0,4.1c0.7,0,1.5,0,2.2,0
		c0,0.8,0,1.6,0,2.4c-0.4,0-0.7,0-1.1,0c-0.3,0-0.6,0-1,0c-0.6-0.1-1.2-0.2-1.8-0.5c-1.1-0.5-1.8-1.6-2.1-2.6c-0.2-1-0.2-2.1,0.1-3
		c0.3-0.9,0.9-1.5,1.6-1.9c0.7-0.4,1.4-0.5,1.9-0.5c0.6,0,1.1,0,1.5,0c0.8,0,1.2,0,1.2,0s-0.4,0-1.2,0c-0.4,0-0.9,0-1.5,0.1
		c-0.6,0.1-1.3,0.2-1.9,0.5c-0.6,0.4-1.2,1.1-1.5,1.9c-0.3,0.8-0.4,1.9-0.1,2.9c0.2,1,1,2,2,2.5c0.5,0.3,1.1,0.4,1.7,0.5
		c0.3,0,0.6,0,0.9,0c0.3,0,0.6,0,0.9,0c0-0.6,0-1.3,0-2c-0.7,0-1.4,0-2.2,0c0-1.5,0-3,0-4.5c2.5,0,5.2,0,7.9,0c0,1.6,0,3.2,0,4.8
		c0,0.8,0,1.6-0.2,2.4c-0.2,0.8-0.6,1.6-1.1,2.2c-1,1.2-2.3,2-3.7,2.5c-1.4,0.4-2.9,0.5-4.3,0.3c-2.9-0.4-5.3-2.1-6.8-4.2
		c-1.6-2.1-2-4.7-1.8-7c0.2-2.3,1.3-4.3,2.7-5.7c1.4-1.4,3-2.2,4.5-2.7c1.5-0.4,2.9-0.4,4-0.4c1.1,0,1.9,0,2.5,0
		C735.9,278.5,736.2,278.5,736.2,278.5"/>
	<path class="st0" d="M761.2,284.4c0,0,0.1,0,0.3,0c0.2,0,0.5,0,0.9,0c0.8,0,1.9,0,3.4,0c0-1.5,0-3.2,0-5.3c-4.2,0-9.4,0-15.3,0
		c0,1.7,0,3.4,0,5.2c1.1,0,2.2,0,3.3,0h1.5c0,4.8,0,9.4,0,13.5c2.1,0,4.1,0,5.9,0c0-4.1,0-7.4,0-9.7c0-1.2,0-2.1,0-2.7
		C761.1,284.7,761.2,284.4,761.2,284.4s0,0.3,0,1c0,0.6,0,1.5,0,2.7c0,2.4,0,5.8,0,9.9c-2,0-4.1,0-6.3,0c0-4.1,0-8.7,0-13.5
		c-0.4,0-0.8,0-1.2,0c-1.2,0-2.4,0-3.5,0c0-1.9,0-3.9,0-5.7c6,0,11.5,0,15.7,0c0,2.2,0,4,0,5.6c-1.5,0-2.7,0-3.5,0
		c-0.4,0-0.7,0-0.9,0C761.3,284.4,761.2,284.4,761.2,284.4"/>
	<path class="st0" d="M775.6,288.4c0,0-0.2,0-0.5,0c-0.3,0-0.8,0-1.4,0c0-0.4,0-0.9,0-1.4c0-0.5-0.1-1.1,0-1.7
		c0.1-0.3,0.2-0.7,0.4-0.9c0.2-0.3,0.6-0.4,1-0.4c0.4,0,0.8,0.1,1.1,0.4c0.2,0.4,0.3,0.8,0.3,1.2c0,3.3,0,7.5,0,12.2
		c1.9,0,3.9,0,5.9,0c0-2.9,0-5.9,0-9c0-0.8,0-1.6,0-2.4c0-0.8,0-1.6-0.1-2.4c-0.2-1.6-0.9-3.2-2.3-4.2c-1.1-0.8-2.5-1.1-3.8-1.1
		c-1.3-0.1-2.7,0-3.9,0.4c-1.2,0.4-2.4,1.1-3.2,2c-0.8,1-1.2,2.2-1.4,3.4c-0.2,1.2-0.1,2.4-0.1,3.6c0,1.2,0,2.3,0,3.5
		c0,2.2,0,4.3,0,6.3c2.1,0,4.1,0,5.9,0c0-1.7,0-3.2,0-4.5c0.6,0,1.2,0,1.8,0c0-1.6,0-2.8,0-3.6C775.6,288.8,775.6,288.4,775.6,288.4
		s0,0.5,0,1.3c0,0.9,0,2.1,0,3.8c-0.5,0-1.1,0-1.8,0c0,1.3,0,2.9,0,4.5c-1.9,0-4,0-6.3,0c0-2,0-4.2,0-6.5c0-1.1,0-2.3,0-3.5
		c0-1.2-0.1-2.4,0.1-3.6c0.2-1.2,0.6-2.5,1.4-3.5c0.8-1,2-1.8,3.3-2.1c1.3-0.4,2.7-0.5,4-0.4c1.4,0.1,2.8,0.4,4,1.2
		c1.5,1,2.2,2.7,2.4,4.4c0.1,0.8,0.1,1.7,0.1,2.5c0,0.8,0,1.6,0,2.4c0,3.2,0,6.3,0,9.3c-2.2,0-4.3,0-6.4,0c0-4.8,0-9,0-12.4
		c0-0.4-0.1-0.8-0.3-1.1c-0.2-0.3-0.6-0.4-1-0.4c-0.4,0-0.7,0.1-0.9,0.3c-0.2,0.2-0.3,0.5-0.4,0.9c-0.1,0.6,0,1.2-0.1,1.7
		c0,0.5,0,0.9,0,1.3c0.6,0,1,0,1.3,0C775.5,288.4,775.6,288.4,775.6,288.4"/>
	<path class="st0" d="M794.8,297.9c0,0,0-0.1,0-0.4c0-0.3,0-0.6,0-1.1c0-0.9,0-2.3,0-4c-0.8,0-1.7,0-2.6,0c0-3.7,0-8.3,0-13.4
		c-0.5,0-1.1,0-1.6,0c-1.5,0-2.9,0-4.2,0c0,5.3,0,10,0,13.4c0,1.7,0,3,0,4c0,0.5,0,0.8,0,1.1c0,0.2,0,0.4,0,0.4s0-0.1,0-0.4
		c0-0.2,0-0.6,0-1.1c0-0.9,0-2.3,0-4c0-3.4,0-8.2,0-13.7c1.5,0,3,0,4.5,0c0.6,0,1.3,0,1.9,0c0,5.1,0,9.8,0,13.5c0.9,0,1.8,0,2.6,0
		c0,1.8,0,3.2,0,4.1c0,0.5,0,0.8,0,1.1C794.8,297.8,794.8,297.9,794.8,297.9"/>
	<path d="M74.1,155.3c0,0,0.2-0.1,0.6-0.2c0.4-0.1,1-0.3,1.9-0.5c1.6-0.4,4-0.9,7-1.1c6-0.4,14.6,0.6,22.7,5.2c1,0.6,2,1.2,2.9,1.8
		l1.4,1l0.8,0.6c0,0,0,0,0,0l-0.1-0.4c-0.1-0.5-0.2-1-0.3-1.5c-0.2-1-0.5-2-0.8-2.9c-1.2-3.8-2.8-6.9-4.3-9.5
		c-1.5-2.5-3.1-4.4-4.1-5.7c-0.5-0.6-1-1.1-1.3-1.5c-0.3-0.3-0.4-0.5-0.4-0.5c0,0,0.7,0.6,1.9,1.8c1.1,1.2,2.7,3.1,4.4,5.6
		c1.6,2.5,3.3,5.7,4.5,9.5c0.3,0.9,0.6,1.9,0.8,2.9c0.1,0.5,0.2,1,0.3,1.5l0.2,1.2c0,0.4,0.4,1.4-0.3,0.7c-0.6-0.5-1.2-0.9-1.8-1.4
		l-1.3-0.9c-0.9-0.6-1.9-1.2-2.9-1.8c-7.9-4.5-16.4-5.6-22.3-5.3c-3,0.1-5.4,0.5-7,0.8C75,155.1,74.1,155.4,74.1,155.3"/>
	<path d="M99.5,183.1c0,0-0.3,0-0.9-0.2c-0.6-0.2-1.4-0.5-2.5-0.9c-2.1-0.9-4.9-2.3-8.1-4.7c-0.5-2.6-0.7-4.9-0.7-7.7
		c0-2.8,0.3-5.2,0.8-7.8c3.2-2.4,6-3.7,8.1-4.7c1-0.4,1.9-0.7,2.5-0.9c0.6-0.2,0.9-0.3,0.9-0.2c0,0.1-1.2,0.5-3.2,1.5
		c-2,0.9-4.9,2.6-7.7,4.7c-0.4,2-0.7,4.8-0.7,7.4c0,2.6,0.3,5.3,0.6,7.3c2.7,2.1,5.7,3.7,7.7,4.7C98.3,182.5,99.6,183,99.5,183.1"/>
	<path d="M88.3,177c0.1,0,0.4,1.3,1.1,3.5c0.6,2.1,1.7,5.1,3.3,8.1c1.6,3,3.3,5.6,4.7,7.3c1.4,1.8,2.3,2.8,2.2,2.9
		c-0.1,0.1-1.1-0.8-2.6-2.5c-1.5-1.7-3.4-4.2-5-7.3c-1.6-3.1-2.6-6.1-3.1-8.3C88.3,178.5,88.2,177.1,88.3,177"/>
	<path d="M73.5,183c-0.1,0,0.2-1.5,1.1-3.7c0.8-2.2,2.3-5.2,4.4-8.2c2.1-3,4.4-5.4,6.2-6.9c1.8-1.5,3.1-2.3,3.1-2.3
		c0.1,0.1-1.1,1-2.8,2.6c-1.7,1.6-3.9,4-6,6.9c-2.1,2.9-3.6,5.8-4.5,8C74.1,181.7,73.7,183.1,73.5,183"/>
	<path d="M99.8,140c0,0-0.7,0.1-2,0.1c-1.3,0.1-3.2,0.3-5.5,1c-2.3,0.6-5.2,1.7-8.1,3.5c-2.9,1.8-5.9,4.5-8.4,8
		c-2.5,3.5-4.4,8-5.1,13.1c-0.6,5,0,10.6,2.4,15.8c2.4,5.2,6.5,9.9,11.8,13.1c2.7,1.5,5.6,2.8,8.8,3.4c1.6,0.4,3.2,0.5,4.8,0.5
		c0.8,0,1.6,0.1,2.4,0l2.4-0.3c5.2-0.7,10.1-3,14-6.2c3.9-3.2,6.9-7.3,8.8-11.6c1.9-4.3,2.7-8.9,2.6-13.3c-0.1-1.1-0.3-2.2-0.4-3.2
		c-0.1-1.1-0.5-2.1-0.7-3.1l-0.4-1.5l-0.6-1.4c-0.4-0.8-1-2.2-0.9-2c-0.2,0.5-0.3,1-0.5,1.5c-0.2,0.7-0.5,1.4-0.8,2
		c-0.6,1.3-1.1,2.6-1.8,3.8c-1.3,2.4-2.8,4.6-4.3,6.4c-3,3.8-6.4,6.5-9.2,8.4c-2.9,1.9-5.3,3.1-7,3.8c-1.7,0.7-2.6,0.9-2.6,0.9
		c0,0,0.2-0.1,0.7-0.3c0.4-0.2,1.1-0.4,1.9-0.8c1.7-0.8,4.1-2,6.9-3.9c2.8-2,6.1-4.7,9-8.5c1.5-1.9,2.9-4,4.2-6.4
		c0.7-1.2,1.2-2.5,1.8-3.8c0.2-0.7,0.5-1.3,0.8-2l0.3-1l0.2-0.8l0.3-1c0.9,1.7,1.1,2.4,1.6,3.3l0.6,1.4l0.4,1.5c0.2,1,0.7,2,0.8,3.1
		c0.1,1.1,0.3,2.2,0.4,3.3c0.2,4.5-0.6,9.2-2.6,13.6c-1.9,4.4-5,8.6-9,11.9c-4,3.3-9,5.6-14.3,6.3l-2.5,0.3c-0.8,0.1-1.7,0-2.5,0
		c-1.7,0-3.3-0.2-4.9-0.6c-3.2-0.7-6.2-1.9-9-3.5c-5.5-3.2-9.7-8.1-12.1-13.4c-2.4-5.3-3.1-11.1-2.4-16.2c0.7-5.2,2.7-9.7,5.2-13.3
		c2.6-3.6,5.6-6.2,8.6-8.1c3-1.9,5.8-2.9,8.2-3.5c2.4-0.6,4.3-0.8,5.6-0.8C99.2,140,99.8,140,99.8,140"/>
	<path d="M99.5,183.1c0-0.1,1.5,0.3,3.8,0.9c2.3,0.5,5.6,1,9.2,1.1c3.6,0.1,6.9-0.3,9.3-0.8c2.4-0.4,3.8-0.8,3.8-0.7
		c0,0.1-1.4,0.7-3.7,1.2c-2.4,0.6-5.7,1.1-9.4,1c-3.7-0.1-7-0.7-9.4-1.3C100.9,183.8,99.5,183.1,99.5,183.1"/>
	<path d="M69.3,135.8c0.2,0.1-11.3,13.7-25.6,30.4c-14.3,16.6-26,30-26.1,29.9c-0.2-0.1,11.3-13.7,25.6-30.4S69.1,135.7,69.3,135.8"
		/>
	<path d="M65,130c0.2,0,0.4,7.5,0.4,16.8c0,9.3-0.2,16.8-0.4,16.8c-0.2,0-0.4-7.5-0.4-16.8C64.6,137.5,64.8,130,65,130"/>
	<path d="M67,168.1c0.2,0,0.4,7.7,0.4,17.3c0,9.5-0.2,17.3-0.4,17.3c-0.2,0-0.4-7.7-0.4-17.3C66.6,175.8,66.8,168.1,67,168.1"/>
	<path d="M54.8,173.5c0.2,0,0.4,7.2,0.4,16c0,8.9-0.2,16-0.4,16c-0.2,0-0.4-7.2-0.4-16C54.4,180.7,54.6,173.5,54.8,173.5"/>
	<path d="M71.3,192.2c0,0.2-13.8,0.4-30.7,0.4c-17,0-30.7-0.2-30.7-0.4c0-0.2,13.8-0.4,30.7-0.4C57.5,191.8,71.3,192,71.3,192.2"/>
	<path d="M56.5,181.3c0,0.2-3,0.4-6.6,0.4c-3.6,0-6.6-0.2-6.6-0.4c0-0.2,3-0.4,6.6-0.4C53.6,180.9,56.5,181.1,56.5,181.3"/>
	<path d="M67,174.3c0,0.2-3.1,0.4-6.8,0.4c-3.8,0-6.8-0.2-6.8-0.4c0-0.2,3.1-0.4,6.8-0.4C63.9,174,67,174.1,67,174.3"/>
	<path d="M68.6,198.9c0,0.2-3.8,0.4-8.6,0.4c-4.7,0-8.6-0.2-8.6-0.4c0-0.2,3.8-0.4,8.6-0.4C64.7,198.6,68.6,198.7,68.6,198.9"/>
	<path d="M42.2,186.5l24-28.3L42.2,186.5z"/>
	<path class="st4" d="M916.4,32.9l30.9-36.4L916.4,32.9z"/>
	<path class="st0" d="M947.3-3.6c0.1,0.1-6.8,8.3-15.3,18.3c-8.5,10.1-15.5,18.2-15.6,18.1c-0.1-0.1,6.8-8.3,15.3-18.3
		C940.2,4.5,947.2-3.6,947.3-3.6"/>
	<path d="M66.2,158.2c0.2,0.1-5.1,6.6-11.7,14.4c-6.6,7.8-12.1,14-12.3,13.9c-0.2-0.1,5.1-6.6,11.7-14.4
		C60.5,164.3,66,158.1,66.2,158.2"/>
	<path d="M175.3,132.2c0.2,0.1-11.8,14.3-26.7,31.7c-14.9,17.4-27.1,31.4-27.3,31.2c-0.2-0.1,11.8-14.3,26.7-31.7
		C163,146.1,175.2,132.1,175.3,132.2"/>
	<path d="M168,134.5c0.2,0,0.4,6.5,0.4,14.6s-0.2,14.6-0.4,14.6c-0.2,0-0.4-6.5-0.4-14.6S167.8,134.5,168,134.5"/>
	<path d="M242.1,144.7c0.2,0,0.4,15.2,0.4,34c0,18.8-0.2,34-0.4,34c-0.2,0-0.4-15.2-0.4-34C241.7,159.9,241.9,144.7,242.1,144.7"/>
	<path d="M293.8,145.3c0.2,0,0.4,13.5,0.4,30.2c0,16.7-0.2,30.2-0.4,30.2c-0.2,0-0.4-13.5-0.4-30.2
		C293.4,158.8,293.6,145.3,293.8,145.3"/>
	<path d="M307.3,151.3c0.2,0,0.4,13.5,0.4,30.2c0,16.7-0.2,30.2-0.4,30.2c-0.2,0-0.4-13.5-0.4-30.2
		C306.9,164.9,307.1,151.3,307.3,151.3"/>
	<path d="M312,198.9c0,0.2-5.4,0.4-12.1,0.4c-6.7,0-12.1-0.2-12.1-0.4c0-0.2,5.4-0.4,12.1-0.4C306.6,198.6,312,198.7,312,198.9"/>
	<path d="M323,163.4c0.2,0,0.4,9.9,0.4,22c0,12.2-0.2,22-0.4,22c-0.2,0-0.4-9.9-0.4-22C322.6,173.2,322.8,163.4,323,163.4"/>
	<path d="M351.2,173.8c0.2,0,0.4,8.2,0.4,18.4c0,10.2-0.2,18.4-0.4,18.4c-0.2,0-0.4-8.2-0.4-18.4C350.9,182,351,173.8,351.2,173.8"
		/>
	<path d="M392,147.3c0.2,0,0.4,12.8,0.4,28.5c0,15.8-0.2,28.5-0.4,28.5c-0.2,0-0.4-12.8-0.4-28.5C391.7,160,391.8,147.3,392,147.3"
		/>
	<path d="M417.8,198.9c0,0.2-6.9,0.4-15.5,0.4c-8.6,0-15.5-0.2-15.5-0.4c0-0.2,6.9-0.4,15.5-0.4
		C410.8,198.6,417.8,198.7,417.8,198.9"/>
	<path d="M364.9,185.2c0.2,0,0.3,4.6,0.3,10.3c0,5.7-0.2,10.3-0.4,10.3c-0.2,0-0.3-4.6-0.3-10.3
		C364.6,189.8,364.7,185.2,364.9,185.2"/>
	<path d="M348.6,198.9c0-0.2,4.6-0.4,10.3-0.4c5.7,0,10.3,0.2,10.3,0.4c0,0.2-4.6,0.4-10.3,0.4C353.2,199.3,348.6,199.1,348.6,198.9
		"/>
	<path d="M336.6,164.3c0.2,0,0.4,9.1,0.4,20.3c0,11.2-0.2,20.3-0.4,20.3c-0.2,0-0.4-9.1-0.4-20.3
		C336.2,173.3,336.4,164.3,336.6,164.3"/>
	<path d="M277.1,150.1c0.2,0,0.4,4.9,0.4,10.9c0,6-0.2,10.9-0.4,10.9c-0.2,0-0.4-4.9-0.4-10.9C276.7,155,276.9,150.1,277.1,150.1"/>
	<path d="M228.6,145.6c0.2,0,0.4,13.4,0.4,30s-0.2,30-0.4,30c-0.2,0-0.4-13.4-0.4-30S228.4,145.6,228.6,145.6"/>
	<path d="M182.5,148.8c0.2,0,0.4,13.4,0.4,30s-0.2,30-0.4,30c-0.2,0-0.4-13.4-0.4-30S182.3,148.8,182.5,148.8"/>
	<path d="M225.8,156.6c0-0.2,4.5-0.4,10.1-0.4c5.6,0,10.1,0.2,10.1,0.4c0,0.2-4.5,0.4-10.1,0.4C230.3,156.9,225.8,156.8,225.8,156.6
		"/>
	<path d="M288.7,156.6c0-0.2,4.5-0.4,10.1-0.4c5.6,0,10.1,0.2,10.1,0.4c0,0.2-4.5,0.4-10.1,0.4C293.3,156.9,288.7,156.8,288.7,156.6
		"/>
	<path d="M224.4,198.9c0-0.2,4.5-0.4,10.1-0.4c5.6,0,10.1,0.2,10.1,0.4c0,0.2-4.5,0.4-10.1,0.4C228.9,199.3,224.4,199.1,224.4,198.9
		"/>
	<path d="M170,168.1c0.2,0,0.4,7.7,0.4,17.3c0,9.5-0.2,17.3-0.4,17.3c-0.2,0-0.4-7.7-0.4-17.3C169.6,175.8,169.8,168.1,170,168.1"/>
	<path d="M157.8,173.5c0.2,0,0.4,7.2,0.4,16c0,8.9-0.2,16-0.4,16c-0.2,0-0.4-7.2-0.4-16C157.4,180.7,157.6,173.5,157.8,173.5"/>
	<path d="M177.6,192.2c0,0.2-12.7,0.4-28.3,0.4c-15.6,0-28.3-0.2-28.3-0.4c0-0.2,12.7-0.4,28.3-0.4
		C164.9,191.8,177.6,192,177.6,192.2"/>
	<path d="M159.6,181.3c0,0.2-3,0.4-6.6,0.4c-3.6,0-6.6-0.2-6.6-0.4c0-0.2,3-0.4,6.6-0.4C156.6,180.9,159.6,181.1,159.6,181.3"/>
	<path d="M170,174.3c0,0.2-3.1,0.4-6.8,0.4c-3.8,0-6.8-0.2-6.8-0.4c0-0.2,3.1-0.4,6.8-0.4C166.9,174,170,174.1,170,174.3"/>
	<path d="M171.6,198.9c0,0.2-3.8,0.4-8.6,0.4c-4.7,0-8.6-0.2-8.6-0.4c0-0.2,3.8-0.4,8.6-0.4C167.8,198.6,171.6,198.7,171.6,198.9"/>
	<path d="M171.2,155.9c0.2,0.1-5.5,7.1-12.7,15.5c-7.2,8.5-13.1,15.2-13.3,15.1c-0.2-0.1,5.5-7.1,12.7-15.5
		C165.1,162.5,171,155.8,171.2,155.9"/>
	<path d="M182.5,198.9c0,0,0.3,0,0.9-0.1c0.6,0,1.5,0,2.7-0.1c2.3,0,5.6-0.1,9.9-0.1c0-3.8,0-8.3-0.1-13.4c0-2.6,0-5.3,0-8.2
		c0-1.4,0-2.9,0-4.4c0-0.8,0-1.5,0-2.3v-0.6v-0.5c0-0.1,0-0.2,0-0.3l0.3,0l0.7-0.1l0.6,0c3.2-0.4,6.7,0.8,9,3.4
		c1.2,1.3,1.8,3.1,1.8,4.9c0,1.8-0.3,3.6-1.4,5.2c-1,1.6-2.6,2.7-4.4,3.3c-0.9,0.4-1.8,0.6-2.7,0.8l-1.2,0.3v0v0.3v0.7
		c0,3.5,0,7.1,0,10.7c5.8,0.2,11.7-1.7,15.9-5.4c4.3-3.6,6.7-8.8,7-13.9c0.4-5.1-0.9-10.1-3.7-13.7c-2.8-3.6-6.6-5.8-10.3-7.1
		c-1.8-0.7-3.6-1.1-5.4-1.4c-1.7-0.3-3.4-0.2-4.9-0.3c-3.1,0-5.8,0-8,0c-2.2,0-3.9,0-5.1,0c-1.2,0-1.8-0.1-1.8-0.1s0.6-0.1,1.8-0.1
		c1.2,0,2.9-0.1,5.1-0.1c2.2,0,4.9-0.1,8-0.1c1.5,0,3.3-0.1,5,0.2c1.8,0.3,3.6,0.7,5.5,1.4c3.7,1.3,7.7,3.5,10.6,7.3
		c3,3.7,4.3,8.9,3.9,14.1c-0.2,2.6-0.8,5.3-2,7.8c-1.2,2.5-3,4.7-5.2,6.6c-4.3,3.9-10.3,5.8-16.4,5.6l-0.4,0c-0.1,0-0.3,0-0.2-0.1
		v-0.7v-0.7v-1.4c0-1,0-1.9,0-2.8c0-1.9,0-3.8,0-5.6l0-0.7v-0.4c0-0.2-0.1-0.6,0.2-0.5l1.5-0.4c0.9-0.2,1.8-0.4,2.6-0.7
		c1.6-0.6,3.1-1.6,4.1-3.1c1.8-2.8,1.8-6.9-0.4-9.3c-1.1-1.2-2.5-2.1-3.9-2.6c-1.5-0.7-3-0.6-4.6-0.6l-1,0.1c0,0,0,0,0,0.1v0.6
		c0,0.8,0,1.5,0,2.3c0,1.5,0,3,0,4.4c0,2.9,0,5.6,0,8.2c0,5.2,0,9.9-0.1,13.8c-4.4,0-7.9-0.1-10.3-0.1c-1.2,0-2.1,0-2.7,0
		C182.9,199,182.5,198.9,182.5,198.9"/>
	<path d="M280.7,155.6c0,0-0.7,0-2,0.1c-1.3,0-3.2,0-5.6,0.1c-2.4,0-5.4,0.1-8.7,1.1c-3.3,1-6.8,2.9-9.8,6c-3,3.1-5.3,7.5-5.6,12.5
		c-0.4,5,0.6,10.6,4.1,15.2c3.4,4.5,8.7,8.2,14.8,8.8c3.1,0.4,6.3,0.2,9.3-0.7c3-1,5.8-2.8,7.8-5.4c1.1-1.5,1.9-3.2,2.3-5
		c0.4-1.8,0.3-3.6,0.3-5.4c0-3.4,0-6.6,0-9.5c-6.5,0-11.7,0-16.4,0c0,3.6,0,6.3,0,8.9c1.7,0,3.3,0,4.9,0c0,1.9,0,3.7,0,5.5
		c-0.8,0-1.7,0-2.5,0c-0.7,0-1.4,0-2.2-0.1c-1.4-0.2-2.8-0.5-4-1.2c-2.5-1.2-4.1-3.5-4.7-5.9c-0.5-2.4-0.4-4.7,0.3-6.6
		c0.8-1.9,2.1-3.4,3.6-4.3c1.5-0.9,3.1-1.1,4.4-1.2c1.3-0.1,2.4-0.1,3.3,0c0.9,0,1.6,0,2,0c0.5,0,0.7,0,0.7,0c0,0-0.2,0-0.7,0
		c-0.5,0-1.1,0-2,0c-0.9,0-2,0-3.3,0.1c-1.3,0.1-2.8,0.3-4.2,1.2c-1.4,0.9-2.7,2.3-3.4,4.2c-0.7,1.9-0.8,4.1-0.3,6.4
		c0.5,2.2,2.1,4.4,4.5,5.5c1.2,0.6,2.5,0.9,3.8,1.1c0.7,0.1,1.4,0.1,2.1,0.1c0.6,0,1.3,0,1.9,0c0-1.4,0-2.8,0-4.3
		c-1.6,0-3.2,0-4.9,0c0-3,0-6.1,0-10.2c5.1,0,10.7,0,17.8,0c0,3,0,6.5,0,10.2c0,1.8,0.1,3.6-0.3,5.5c-0.4,1.9-1.2,3.7-2.4,5.2
		c-2.1,2.7-5,4.6-8.2,5.6c-3.1,1-6.5,1.1-9.6,0.8c-6.4-0.7-11.9-4.5-15.3-9.1c-3.6-4.7-4.6-10.5-4.2-15.6c0.4-5.2,2.8-9.7,5.9-12.8
		c3.1-3.2,6.7-5.1,10-6c3.4-1,6.4-1,8.8-1c2.4,0,4.3,0.1,5.6,0.1C280,155.6,280.7,155.6,280.7,155.6"/>
	<path d="M336.6,168.8c0,0,0.2,0,0.7,0c0.5,0,1.1,0,2,0c1.7,0,4.3,0,7.5-0.1c0-3.2,0-7.2-0.1-11.7c-9.2,0-20.9,0.1-34,0.1
		c0,3.7,0,7.5,0,11.4c2.4,0,4.8,0,7.2,0h3.3c0,10.9,0,21.1,0,30.2c4.6,0,9,0,13,0c0.1-9.1,0.1-16.5,0.1-21.7c0-2.6,0.1-4.7,0.1-6.1
		c0-0.7,0-1.2,0-1.6C336.6,169,336.6,168.8,336.6,168.8c0,0,0,0.2,0,0.5c0,0.4,0,0.9,0,1.6c0,1.4,0,3.4,0.1,6.1
		c0,5.3,0.1,12.9,0.1,22.2c-4.4,0-9.2,0-14.3,0c0-9.1,0-19.2,0-30.1H320c-2.7,0-5.3,0-7.9,0c0-4.4,0-8.7,0-12.8
		c13.5,0,25.7,0.1,35.2,0.1c0,4.9-0.1,9.1-0.1,12.6c-3.4,0-6.1-0.1-7.9-0.1c-0.9,0-1.6,0-2,0C336.8,168.8,336.6,168.8,336.6,168.8"
		/>
	<path d="M368.8,177.7c0,0-0.3,0-1,0c-0.7,0-1.7,0-3,0c0-0.9,0-1.9,0-3.1c0-1.1-0.1-2.4,0.1-3.8c0.1-0.7,0.4-1.5,0.9-2.1
		c0.6-0.6,1.4-0.9,2.3-0.9c0.8,0,1.8,0.1,2.5,1c0.5,0.8,0.6,1.8,0.7,2.7c0,7.4,0.1,16.6,0.1,27.1c4.1,0,8.5,0,13.1,0
		c0-6.3,0-13.1,0-20c0-1.8,0-3.6,0-5.4c0-1.8,0-3.6-0.2-5.4c-0.5-3.5-1.9-7.2-5-9.3c-2.5-1.7-5.5-2.3-8.5-2.5c-3-0.1-6,0-8.7,0.9
		c-2.8,0.8-5.2,2.4-7,4.6c-1.8,2.1-2.7,4.8-3.1,7.5c-0.4,2.7-0.1,5.4-0.2,8c0,2.6,0,5.2,0,7.7c0,4.9,0,9.6,0,13.9
		c4.8,0,9.2,0,13.1,0c0-3.7,0-7.1,0-10c1.4,0,2.7,0,4,0c0-3.5,0.1-6.2,0.1-8.1c0-0.9,0-1.7,0-2.2C368.8,178,368.8,177.7,368.8,177.7
		s0,0.2,0,0.7c0,0.5,0,1.2,0,2.2c0,1.9,0,4.8,0.1,8.4c-1.2,0-2.5,0-3.9,0c0,3,0,6.4,0,10.1c-4.3,0-9,0-14.2,0c0-4.5,0-9.4,0-14.5
		c0-2.5,0-5.1,0-7.7c0.1-2.6-0.2-5.3,0.2-8.1c0.4-2.8,1.3-5.6,3.2-7.8c1.8-2.3,4.5-3.9,7.3-4.8c2.9-0.9,5.9-1.1,9-0.9
		c3,0.2,6.2,0.8,8.9,2.6c3.3,2.2,4.9,6.1,5.3,9.8c0.3,1.8,0.3,3.7,0.2,5.5c0,1.8,0,3.6,0,5.4c0,7.2,0,14.1,0,20.7c-5,0-9.8,0-14.3,0
		c0-10.7,0-20.1,0.1-27.7c-0.1-0.9-0.2-1.8-0.6-2.5c-0.5-0.7-1.3-0.8-2.1-0.8c-0.8,0-1.5,0.2-2,0.8c-0.5,0.5-0.7,1.2-0.9,1.9
		c-0.2,1.3-0.1,2.6-0.2,3.8c0,1.1,0,2.1,0,2.9c1.2,0,2.2,0,2.8,0C368.5,177.7,368.8,177.7,368.8,177.7"/>
	<path d="M411.5,198.9c0,0,0-0.3-0.1-0.8c0-0.6,0-1.4-0.1-2.4c0-2.1-0.1-5.1-0.1-8.8c-1.8,0-3.7,0-5.8,0c0-8.1-0.1-18.5-0.1-29.9
		c-1.2,0-2.4,0-3.6,0c-3.2,0-6.4,0-9.4,0c0,11.9-0.1,22.3-0.1,29.8c0,3.8-0.1,6.8-0.1,8.9c0,1,0,1.8-0.1,2.4c0,0.5,0,0.8-0.1,0.8
		c0,0,0-0.3-0.1-0.8c0-0.5,0-1.3-0.1-2.4c0-2.1-0.1-5.1-0.1-8.9c0-7.6-0.1-18.3-0.1-30.5c3.3,0,6.6,0,10.1,0c1.5,0,2.9,0,4.3,0
		c0,11.5-0.1,21.9-0.1,30.1c2.1,0,4,0,5.8,0c0,3.9-0.1,7.1-0.1,9.3c0,1.1,0,1.9-0.1,2.4C411.6,198.7,411.5,198.9,411.5,198.9"/>
	<path class="st0" d="M957.4-7.3c0,0,1.1-0.4,3.2-0.9c2.1-0.5,5.2-1.1,9-1.3c1.9-0.1,4-0.1,6.3,0c2.3,0.1,4.7,0.4,7.2,0.9
		c5,1,10.4,2.8,15.5,5.7c1.3,0.8,2.6,1.6,3.9,2.4c0.6,0.4,1.2,0.9,1.8,1.3l0.9,0.7l0.5,0.4c-0.1-0.4-0.2-0.9-0.2-1.3
		c-0.1-0.6-0.2-1.1-0.4-1.7c-0.3-1.1-0.6-2.2-0.9-3.3c-0.6-2.1-1.4-4.1-2.2-6c-1.6-3.7-3.5-6.8-5.2-9.3c-1.7-2.5-3.3-4.3-4.4-5.5
		c-1.1-1.2-1.7-1.8-1.7-1.9c0,0,0.2,0.1,0.5,0.4c0.3,0.3,0.8,0.8,1.3,1.4c1.1,1.2,2.7,3,4.5,5.5c1.7,2.5,3.6,5.6,5.3,9.3
		c0.8,1.9,1.6,3.9,2.2,6c0.3,1.1,0.6,2.2,0.9,3.3c0.1,0.6,0.3,1.1,0.4,1.7l0.2,0.9c0.1,0.4,0.2,0.9,0.2,1.3
		c-0.4-0.3-0.8-0.6-1.2-0.9l-0.9-0.7c-0.6-0.4-1.2-0.9-1.8-1.3c-1.2-0.8-2.5-1.6-3.8-2.4c-5.1-2.9-10.4-4.7-15.4-5.7
		c-2.5-0.5-4.9-0.8-7.1-1c-2.3-0.1-4.4-0.1-6.3-0.1c-3.8,0.2-6.9,0.7-9,1.2c-1.1,0.2-1.9,0.4-2.4,0.6c-0.3,0.1-0.5,0.1-0.6,0.2
		C957.5-7.3,957.4-7.3,957.4-7.3"/>
	<path class="st0" d="M990.2,28.4c0,0-0.1,0-0.3-0.1c-0.2-0.1-0.5-0.2-0.9-0.3c-0.7-0.3-1.8-0.7-3.2-1.3c-2.7-1.2-6.3-3-10.3-6
		c-0.1-0.4-0.1-0.8-0.2-1.2c-0.1-0.4-0.1-0.8-0.2-1.2c-0.1-0.8-0.2-1.6-0.3-2.4c-0.2-1.6-0.2-3.3-0.2-5c0-1.7,0.1-3.4,0.3-5.1
		c0.1-0.8,0.2-1.6,0.3-2.4c0.1-0.4,0.1-0.8,0.2-1.2c0.1-0.4,0.1-0.8,0.2-1.2c4-3,7.6-4.8,10.2-6c1.3-0.6,2.4-1,3.1-1.3
		c0.4-0.1,0.7-0.2,0.9-0.3c0.2-0.1,0.3-0.1,0.3-0.1c0,0-0.1,0.1-0.3,0.1c-0.2,0.1-0.5,0.2-0.8,0.3c-0.7,0.3-1.8,0.7-3.1,1.3
		c-1.3,0.6-2.9,1.4-4.6,2.4c-0.9,0.5-1.8,1-2.7,1.7c-0.5,0.3-0.9,0.6-1.4,1c-0.2,0.2-0.5,0.3-0.7,0.5c-0.2,0.2-0.4,0.3-0.7,0.5
		c-0.1,0.4-0.1,0.7-0.2,1.1c-0.1,0.4-0.1,0.8-0.2,1.2c-0.1,0.8-0.2,1.6-0.3,2.4c-0.2,1.6-0.2,3.3-0.2,5c0,1.7,0.1,3.4,0.2,5
		c0.1,0.8,0.2,1.6,0.3,2.4c0.1,0.4,0.1,0.8,0.2,1.1c0.1,0.4,0.1,0.7,0.2,1.1c0.2,0.2,0.4,0.3,0.7,0.5c0.2,0.2,0.5,0.3,0.7,0.5
		c0.5,0.3,0.9,0.7,1.4,1c0.9,0.6,1.8,1.2,2.7,1.7c1.7,1,3.3,1.8,4.6,2.4c1.3,0.6,2.4,1,3.1,1.3c0.4,0.1,0.6,0.3,0.8,0.3
		C990.1,28.3,990.2,28.4,990.2,28.4"/>
	<path class="st0" d="M975.8,20.6c0,0,0.1,0.4,0.3,1.2c0.2,0.8,0.5,1.9,0.9,3.3c0.8,2.8,2.1,6.6,4.2,10.5c2,3.9,4.4,7.2,6.2,9.4
		c0.9,1.1,1.7,2,2.2,2.6c0.3,0.3,0.5,0.5,0.6,0.7c0.1,0.2,0.2,0.3,0.2,0.3c0,0-0.1-0.1-0.3-0.2c-0.2-0.2-0.4-0.4-0.7-0.7
		c-0.6-0.6-1.4-1.4-2.3-2.5c-1.9-2.2-4.3-5.5-6.3-9.4c-2.1-3.9-3.4-7.8-4.1-10.6c-0.4-1.4-0.6-2.6-0.7-3.4c-0.1-0.4-0.1-0.7-0.1-0.9
		C975.8,20.7,975.8,20.6,975.8,20.6"/>
	<path class="st0" d="M956.8,28.3c0,0,0-0.1,0.1-0.3c0.1-0.2,0.2-0.5,0.3-0.9c0.2-0.8,0.6-2,1.2-3.4c1.1-2.8,3-6.7,5.7-10.5
		c2.7-3.8,5.6-6.9,7.9-8.9c1.1-1,2.1-1.8,2.8-2.3c0.3-0.2,0.6-0.4,0.8-0.6c0.2-0.1,0.3-0.2,0.3-0.2s-0.1,0.1-0.2,0.2
		c-0.2,0.1-0.4,0.4-0.8,0.6c-0.7,0.5-1.6,1.3-2.7,2.4c-2.2,2.1-5.1,5.1-7.8,8.9c-2.7,3.8-4.6,7.6-5.7,10.4c-0.6,1.4-1,2.6-1.3,3.4
		c-0.1,0.4-0.3,0.7-0.3,0.9C956.8,28.2,956.8,28.3,956.8,28.3"/>
	<path class="st0" d="M990.6-27.1c0,0-0.2,0-0.6,0c-0.4,0-1.1,0-1.9,0.1c-0.8,0.1-1.8,0.2-3,0.3c-1.2,0.2-2.6,0.4-4.1,0.9
		c-3,0.8-6.7,2.2-10.4,4.5c-1.9,1.2-3.8,2.6-5.7,4.3c-1.8,1.7-3.6,3.7-5.2,6c-3.2,4.6-5.7,10.4-6.6,16.9c-0.8,6.5,0,13.8,3.1,20.5
		c1.5,3.4,3.6,6.6,6.2,9.5c2.6,2.9,5.7,5.4,9.1,7.5c3.5,2,7.3,3.6,11.4,4.4c4.1,0.9,8.3,1.1,12.6,0.5c4.2-0.6,8.3-1.9,12-3.9
		c3.7-2,7-4.5,9.7-7.4c2.8-2.9,5.1-6.2,6.9-9.6c1.7-3.5,3-7.1,3.6-10.7c1.4-7.3,0.4-14.6-2.2-20.6c-0.3-0.8-0.7-1.5-1-2.2l-0.4-0.9
		c0,0,0,0,0,0l0,0.1l-0.2,0.6c-0.2,0.8-0.5,1.5-0.7,2.3c-0.3,0.7-0.6,1.5-0.9,2.2c-1.2,2.8-2.5,5.5-4,7.9c-3,4.8-6.4,8.6-9.7,11.6
		c-3.3,3-6.5,5.2-9.3,6.7c-2.8,1.5-5,2.5-6.5,3.1c-0.8,0.3-1.4,0.5-1.8,0.7c-0.4,0.1-0.6,0.2-0.6,0.2s0.2-0.1,0.6-0.2
		c0.4-0.2,1-0.4,1.8-0.7c1.5-0.6,3.8-1.7,6.5-3.2c2.7-1.6,5.9-3.8,9.2-6.8c3.3-3,6.7-6.8,9.7-11.6c1.5-2.4,2.8-5,4-7.8
		c0.3-0.7,0.6-1.4,0.8-2.2c0.2-0.7,0.5-1.5,0.7-2.2l0.2-0.6l0.2-0.5l0.1-0.3l0.1,0.2l0.2,0.5l0.1,0.3l0.3,0.5c0.3,0.7,0.8,1.5,1,2.2
		c2.6,6.1,3.6,13.4,2.2,20.8c-0.7,3.7-1.9,7.3-3.7,10.8c-1.8,3.5-4.1,6.8-6.9,9.7c-2.8,3-6.1,5.5-9.8,7.5c-3.7,2-7.8,3.4-12.1,3.9
		c-4.3,0.6-8.6,0.4-12.7-0.5c-4.1-0.8-8-2.4-11.5-4.5c-3.5-2.1-6.6-4.6-9.2-7.6c-2.6-2.9-4.7-6.2-6.2-9.6
		c-3.1-6.8-3.9-14.1-3.1-20.7c0.9-6.6,3.4-12.4,6.7-17c1.6-2.3,3.4-4.3,5.3-6c1.9-1.7,3.8-3.2,5.7-4.3c3.8-2.4,7.5-3.7,10.5-4.5
		c1.5-0.4,2.9-0.6,4.1-0.8c1.2-0.2,2.2-0.2,3.1-0.3c0.8,0,1.5,0,1.9,0C990.4-27.1,990.6-27.1,990.6-27.1"/>
	<path class="st0" d="M990.2,28.4c0,0,0.1,0,0.3,0.1c0.2,0.1,0.5,0.2,1,0.3c0.8,0.3,2,0.6,3.5,0.9c3,0.7,7.2,1.4,11.9,1.5
		c4.7,0.1,9-0.5,12-1.1c1.5-0.3,2.7-0.6,3.6-0.8c0.4-0.1,0.7-0.2,1-0.2c0.2-0.1,0.3-0.1,0.3-0.1c0,0-0.1,0.1-0.3,0.1
		c-0.2,0.1-0.5,0.2-0.9,0.3c-0.8,0.3-2,0.6-3.6,0.9c-3,0.7-7.3,1.3-12,1.2c-4.7-0.1-9-0.8-12-1.6c-1.5-0.4-2.7-0.8-3.5-1.1
		c-0.4-0.1-0.7-0.3-0.9-0.3C990.3,28.4,990.2,28.4,990.2,28.4"/>
	<path class="st0" d="M951.2-32.5c0.1,0.1-14.8,17.5-33.2,38.9c-18.4,21.4-33.3,38.8-33.4,38.7c-0.1-0.1,14.8-17.5,33.2-38.9
		C936.2-15.2,951.2-32.5,951.2-32.5"/>
	<path class="st0" d="M945.7-39.9c0.1,0,0.2,9.7,0.2,21.7s-0.1,21.7-0.2,21.7s-0.2-9.7-0.2-21.7S945.6-39.9,945.7-39.9"/>
	<path class="st0" d="M948.3,9.1c0.1,0,0.2,10,0.2,22.2c0,12.3-0.1,22.2-0.2,22.2s-0.2-10-0.2-22.2C948.1,19,948.2,9.1,948.3,9.1"/>
	<path class="st0" d="M932.6,16.1c0.1,0,0.2,9.2,0.2,20.7c0,11.4-0.1,20.7-0.2,20.7s-0.2-9.2-0.2-20.7
		C932.4,25.3,932.5,16.1,932.6,16.1"/>
	<path class="st0" d="M953.8,40.1c0,0.1-17.7,0.2-39.6,0.2c-21.8,0-39.6-0.1-39.6-0.2c0-0.1,17.7-0.2,39.6-0.2
		C936.1,39.9,953.8,40,953.8,40.1"/>
	<path class="st0" d="M934.9,26.1c0,0.1-3.8,0.2-8.5,0.2c-4.7,0-8.5-0.1-8.5-0.2c0-0.1,3.8-0.2,8.5-0.2
		C931.1,26,934.9,26,934.9,26.1"/>
	<path class="st0" d="M948.3,17.1c0,0.1-3.9,0.2-8.8,0.2c-4.9,0-8.8-0.1-8.8-0.2c0-0.1,3.9-0.2,8.8-0.2
		C944.3,17,948.3,17,948.3,17.1"/>
	<path class="st0" d="M950.4,48.8c0,0.1-4.9,0.2-11.1,0.2s-11.1-0.1-11.1-0.2c0-0.1,4.9-0.2,11.1-0.2S950.4,48.7,950.4,48.8"/>
	<path class="st0" d="M1087.8-37c0.1,0.1-15.4,18.2-34.6,40.6C1034,26,1018.4,44.1,1018.3,44c-0.1-0.1,15.4-18.2,34.6-40.6
		C1072.1-19,1087.7-37.1,1087.8-37"/>
	<path class="st0" d="M1078.4-34.2c0.1,0,0.2,8.4,0.2,18.8c0,10.4-0.1,18.8-0.2,18.8c-0.1,0-0.2-8.4-0.2-18.8
		C1078.2-25.8,1078.3-34.2,1078.4-34.2"/>
	<path class="st0" d="M1080.9,9.1c0.1,0,0.2,10,0.2,22.2c0,12.3-0.1,22.2-0.2,22.2c-0.1,0-0.2-10-0.2-22.2
		C1080.8,19,1080.9,9.1,1080.9,9.1"/>
	<path class="st0" d="M1065.2,16.1c0.1,0,0.2,9.2,0.2,20.7c0,11.4-0.1,20.7-0.2,20.7c-0.1,0-0.2-9.2-0.2-20.7
		C1065.1,25.3,1065.1,16.1,1065.2,16.1"/>
	<path class="st0" d="M1090.7,40.1c0,0.1-16.3,0.2-36.4,0.2c-20.1,0-36.4-0.1-36.4-0.2c0-0.1,16.3-0.2,36.4-0.2
		C1074.4,39.9,1090.7,40,1090.7,40.1"/>
	<path class="st0" d="M1067.5,26.1c0,0.1-3.8,0.2-8.5,0.2c-4.7,0-8.5-0.1-8.5-0.2c0-0.1,3.8-0.2,8.5-0.2
		C1063.7,26,1067.5,26,1067.5,26.1"/>
	<path class="st0" d="M1080.9,17.1c0,0.1-3.9,0.2-8.8,0.2s-8.8-0.1-8.8-0.2c0-0.1,3.9-0.2,8.8-0.2S1080.9,17,1080.9,17.1"/>
	<path class="st0" d="M1083,48.8c0,0.1-4.9,0.2-11.1,0.2s-11.1-0.1-11.1-0.2c0-0.1,4.9-0.2,11.1-0.2S1083,48.7,1083,48.8"/>
	<path class="st0" d="M1082.5-6.6c0.1,0.1-7.4,8.9-16.6,19.8c-9.2,10.9-16.8,19.7-16.9,19.6c-0.1-0.1,7.4-8.9,16.6-19.8
		C1074.9,2.1,1082.4-6.6,1082.5-6.6"/>
	<path class="st0" d="M939.6,72.4c0,0,0.6-0.1,1.7-0.1c0.3,0,0.6,0,0.9,0.1c0.3,0.1,0.7,0.2,1.1,0.3c0.7,0.3,1.6,0.7,2.2,1.6
		c0.7,0.8,1,2,0.7,3.3c-0.1,0.6-0.3,1.3-0.7,1.8c-0.4,0.6-1,1-1.6,1.4c-0.6,0.3-1.4,0.5-2.1,0.7l-0.6,0.1c-0.3,0.1-0.2,0-0.2,0.2
		c0,0.4,0,0.8,0,1.2c0,1.6,0,3.2,0,5c0.3,0,0.5,0,0.8,0c0.3,0,0.6,0,0.9-0.1c0.6-0.1,1.2-0.1,1.9-0.3c1.2-0.3,2.5-0.7,3.6-1.4
		c2.3-1.3,4.4-3.5,5.2-6.3c0.8-2.7,0.7-6-1-8.6c-1.7-2.6-4.6-4.3-7.7-5.1c-0.8-0.2-1.6-0.3-2.4-0.4c-0.8,0-1.6,0-2.4,0
		c-1.6,0-3.2,0-4.8,0c-0.8,0-1.6,0-2.3,0l-0.6,0l0,0V66l0,1.2c0,1.5,0,3,0,4.5c0,5.9,0,11.3,0,16.2c2.6,0,5.1,0,7.4,0
		c0-4.8,0-8.6,0.1-11.3c0-1.3,0-2.4,0-3.1C939.6,72.7,939.6,72.4,939.6,72.4s0,0.4,0,1.1c0,0.7,0,1.7,0,3.1c0,2.7,0,6.7,0.1,11.5
		c-2.4,0-5.1,0-7.9,0c0-4.9,0-10.5,0-16.4c0-1.5,0-3,0-4.5l0-1.2v-0.3v-0.1c0,0,0-0.1,0.1-0.1l0.3,0l0.6,0c0.8,0,1.6,0,2.3,0
		c1.6,0,3.2,0,4.8,0c0.8,0,1.6,0,2.5,0c0.8,0.1,1.6,0.2,2.4,0.4c3.2,0.8,6.2,2.5,7.9,5.2c0.9,1.3,1.3,2.9,1.4,4.4
		c0.1,1.5,0,3.1-0.4,4.5c-0.4,1.4-1.2,2.7-2.1,3.8c-0.9,1.1-2.1,1.9-3.2,2.6c-1.2,0.7-2.5,1.2-3.7,1.4c-0.6,0.1-1.3,0.2-1.9,0.3
		c-0.3,0-0.6,0.1-0.9,0c-0.4,0-0.7,0-1.1,0c0-1.8,0-3.6,0-5.2c0-0.4,0-0.8,0-1.2l0-0.2c0-0.1,0-0.2,0-0.2l0.4-0.1l0.6-0.1
		c0.7-0.2,1.5-0.3,2.1-0.7c1.3-0.6,2.1-1.8,2.3-3c0.2-1.2,0-2.4-0.7-3.1c-0.6-0.8-1.4-1.2-2.2-1.6c-0.4-0.1-0.7-0.3-1-0.3
		c-0.3-0.1-0.6-0.1-0.9-0.1c-0.5,0-1,0-1.2,0C939.8,72.3,939.6,72.4,939.6,72.4"/>
	<path class="st0" d="M965.3,65.6c0,0-0.2,0-0.5,0c-0.3,0-0.9,0-1.5,0c-1.3,0-3.2,0-5.5,0.1c0,5.4,0,13.3,0.1,22.1c2.5,0,5,0,7.3,0
		c0-6.4,0-11.9,0.1-15.8c0-2,0-3.6,0-4.7c0-0.5,0-1,0-1.3C965.2,65.7,965.3,65.6,965.3,65.6s0,0.1,0,0.4c0,0.3,0,0.7,0,1.3
		c0,1.1,0,2.7,0,4.7c0,4,0,9.7,0.1,16.2c-2.5,0-5.2,0-8,0c0-9,0-17.1,0.1-22.7c2.4,0,4.4,0,5.7,0.1c0.7,0,1.2,0,1.5,0
		C965.1,65.5,965.3,65.6,965.3,65.6"/>
	<path class="st0" d="M981.3,74.3c0,0,0,0.1,0,0.3c0,0.2,0,0.6,0,1c0,0.8,0,2.1,0,3.7c0.8,0,1.7,0,2.7,0c0,0.9,0,1.8,0,2.8
		c-0.4,0-0.8,0-1.1,0c-0.4,0-0.7,0-1.1,0c-0.7,0-1.5-0.2-2.3-0.5c-0.7-0.3-1.4-0.8-2-1.5c-0.5-0.7-0.9-1.5-1-2.4
		c-0.1-0.9-0.1-1.9,0.3-2.8c0.3-0.9,1-1.7,1.8-2.3c0.9-0.6,1.9-0.8,2.9-0.8c0.5,0,1,0,1.5,0c0.5,0,0.9,0,1.4,0c0-2.1,0-4.3,0-6.6
		c-0.6,0-1.2,0-1.8,0c-0.7,0-1.3,0-2,0c-1.3,0.1-2.6,0.3-3.9,0.8c-2.5,0.9-4.9,2.6-6.3,5c-1.2,2-1.7,4.3-1.5,6.6
		c0.1,2.2,1,4.4,2.3,6c1.3,1.7,3.1,3,4.9,3.8c1.9,0.8,3.9,1,5.8,1c1.9-0.1,3.7-0.6,5.2-1.6c1.5-1,2.6-2.3,3.1-3.8
		c0.2-0.8,0.3-1.5,0.3-2.3c0-0.8,0-1.5,0-2.2c0-1.4,0-2.7,0-3.9c-3,0-5.3,0-6.9,0c-0.8,0-1.4,0-1.9,0
		C981.5,74.3,981.3,74.3,981.3,74.3s0.2,0,0.6,0c0.4,0,1.1,0,1.9,0c1.7,0,4.1,0,7.1,0c0,1.3,0,2.6,0,4.1c0,0.7,0,1.5,0,2.2
		c0,0.8-0.1,1.6-0.3,2.4c-0.5,1.6-1.6,3-3.1,4c-1.5,1-3.4,1.6-5.3,1.7c-1.9,0.1-4-0.1-5.9-1c-1.9-0.8-3.7-2.2-5.1-3.9
		c-1.4-1.7-2.3-3.9-2.4-6.2c-0.2-2.3,0.3-4.7,1.5-6.8c1.5-2.5,3.9-4.2,6.5-5.1c1.3-0.4,2.7-0.7,4-0.8c0.7,0,1.3,0,2,0
		c0.7,0,1.4,0,2.1,0c0,2.5,0,4.9,0,7.3c-0.6,0-1.2,0-1.7,0c-0.5,0-1,0-1.5,0c-1,0-2,0.2-2.8,0.8c-0.8,0.5-1.4,1.3-1.7,2.1
		c-0.3,0.8-0.4,1.8-0.3,2.6c0.1,0.9,0.4,1.7,0.9,2.3c0.5,0.6,1.2,1.1,1.9,1.4c0.7,0.3,1.5,0.4,2.2,0.5c0.4,0,0.7,0,1.1,0
		c0.3,0,0.6,0,0.9,0c0-0.9,0-1.7,0-2.4c-1,0-1.9,0-2.7,0c0-1.7,0-3,0-3.8c0-0.4,0-0.8,0-1C981.2,74.4,981.3,74.3,981.3,74.3"/>
	<path class="st0" d="M1001.6,65.6c0,0-0.2,0-0.5,0c-0.3,0-0.9,0-1.5,0c-1.3,0-3.2,0-5.5,0.1c0,5.4,0,13.3,0.1,22.1c2.5,0,5,0,7.3,0
		c0-6.4,0-11.9,0.1-15.8c0-2,0-3.6,0-4.7c0-0.5,0-1,0-1.3C1001.6,65.7,1001.6,65.6,1001.6,65.6s0,0.1,0,0.4c0,0.3,0,0.7,0,1.3
		c0,1.1,0,2.7,0,4.7c0,4,0,9.7,0.1,16.2c-2.5,0-5.2,0-8,0c0-9,0-17.1,0.1-22.7c2.4,0,4.4,0,5.7,0.1c0.7,0,1.2,0,1.5,0
		C1001.4,65.5,1001.6,65.6,1001.6,65.6"/>
	<path class="st0" d="M1017.9,72c0,0,0.1,0,0.4,0c0.3,0,0.6,0,1.1,0c1,0,2.4,0,4.2,0c0-1.7,0-3.8,0-6.2c-5.2,0-11.7,0-19,0
		c0,2,0,4,0,6.1c1.2,0,2.3,0,3.5,0h2.3c0,5.7,0,11.1,0,16c2.6,0,5.1,0,7.3,0c0-4.8,0-8.7,0.1-11.5c0-1.4,0-2.5,0-3.2
		c0-0.4,0-0.6,0-0.8C1017.9,72.1,1017.9,72,1017.9,72c0,0,0,0.1,0,0.3c0,0.2,0,0.5,0,0.8c0,0.7,0,1.8,0,3.2c0,2.8,0,6.8,0.1,11.8
		c-2.4,0-5.1,0-7.9,0c0-4.9,0-10.2,0-15.9c-0.7,0-1.3,0-2,0c-1.3,0-2.6,0-3.9,0c0-2.3,0-4.6,0-6.8c7.5,0,14.3,0,19.6,0
		c0,2.6,0,4.8,0,6.6c-1.9,0-3.4,0-4.4,0c-0.5,0-0.9,0-1.1,0C1018,72,1017.9,72,1017.9,72"/>
	<path class="st0" d="M1035.8,76.7c0,0-0.2,0-0.6,0c-0.4,0-0.9,0-1.7,0c0-0.5,0-1.1,0-1.7c0-0.6-0.1-1.3,0.1-2.1
		c0.1-0.4,0.2-0.8,0.5-1.1c0.3-0.3,0.8-0.4,1.2-0.4c0.4,0,1,0.1,1.3,0.5c0.3,0.4,0.4,0.9,0.4,1.4c0,3.9,0,8.8,0.1,14.4
		c2.3,0,4.8,0,7.3,0c0-3.4,0-7,0-10.8c0-1,0-1.9,0-2.9c0-1,0-1.9-0.2-2.9c-0.3-1.9-1.2-3.8-3-4.8c-1.4-0.8-3-1.1-4.6-1.2
		c-1.6-0.1-3.2,0-4.7,0.4c-1.5,0.4-2.9,1.2-3.9,2.3c-1,1.1-1.6,2.5-1.9,3.9c-0.2,1.4-0.1,2.9-0.2,4.3c0,1.4,0,2.8,0,4.1
		c0,2.6,0,5.2,0,7.5c2.7,0,5.1,0,7.4,0c0-2,0-3.7,0-5.3c0.8,0,1.5,0,2.2,0c0-1.9,0-3.3,0-4.3c0-0.5,0-0.9,0-1.1
		C1035.8,76.8,1035.8,76.7,1035.8,76.7s0,0.1,0,0.4c0,0.3,0,0.6,0,1.1c0,1,0,2.5,0,4.4c-0.7,0-1.4,0-2.2,0c0,1.6,0,3.4,0,5.3
		c-2.4,0-5,0-7.9,0c0-2.4,0-5,0-7.8c0-1.3,0-2.7,0-4.1c0-1.4-0.1-2.9,0.1-4.3c0.2-1.5,0.9-2.9,1.9-4.1c1.1-1.2,2.5-2,4-2.4
		c1.5-0.4,3.2-0.5,4.8-0.5c1.6,0.1,3.3,0.4,4.8,1.3c0.9,0.5,1.6,1.3,2.2,2.2c0.5,0.9,0.8,1.9,1,2.9c0.2,1,0.2,2,0.2,2.9
		c0,1,0,1.9,0,2.9c0,3.9,0,7.6,0,11.1c-2.8,0-5.4,0-7.9,0c0-5.7,0-10.6,0-14.6c0-0.5-0.1-1-0.4-1.3c-0.3-0.3-0.7-0.4-1.2-0.4
		c-0.4,0-0.8,0.1-1.1,0.4c-0.3,0.3-0.4,0.6-0.5,1c-0.1,0.7-0.1,1.4-0.1,2c0,0.6,0,1.1,0,1.6c0.7,0,1.2,0,1.6,0
		C1035.6,76.7,1035.8,76.7,1035.8,76.7"/>
	<path class="st0" d="M1048.8,65.6c0,0,0,0.1,0,0.4c0,0.3,0,0.7,0,1.2c0,1.1,0,2.7,0,4.6c0,3.9,0,9.5,0.1,15.9c3.3,0,6.8,0,10.5,0
		c0-2.1,0-4.2,0-6.1c-1.1,0-2.2,0-3.2,0c0-6.3,0-11.8,0.1-15.9c-2.3,0-4.2,0-5.5-0.1c-0.7,0-1.2,0-1.5,0
		C1048.9,65.6,1048.8,65.6,1048.8,65.6c0,0,0.2,0,0.5,0c0.3,0,0.9,0,1.5,0c1.3,0,3.3,0,5.7-0.1c0,4.1,0,9.6,0.1,15.8
		c1.1,0,2.1,0,3.2,0c0,2.2,0,4.5,0,6.8c-3.9,0-7.7,0-11.2,0c0-6.6,0-12.2,0.1-16.2c0-2,0-3.6,0-4.6c0-0.5,0-1,0-1.2
		C1048.7,65.7,1048.8,65.6,1048.8,65.6"/>
	<path class="st5" d="M653.8,75.3v15.6h-7.6V68.5c0,0,9.3-0.1,10.4,0c2.9,0.3,5.4,1.3,7.2,2.6c2.9,2.1,4.4,4.9,4.4,8.4
		c0,3.4-1.3,6.2-3.8,8.3c-2.2,1.9-4.6,2.9-7.9,3.2c-0.5,0-0.5,0-1.5,0v-6.6c0,0,0.6-0.1,1.5-0.3c2.5-0.6,3.8-2.1,3.8-4.5
		c0-2.1-1.6-3.5-3.8-4.2C655.6,75.1,653.8,75.3,653.8,75.3"/>
	<rect x="671.8" y="68.5" class="st5" width="7.6" height="22.4"/>
	<path class="st5" d="M695.4,77.3h9.5v6.4c0,2.2-0.8,4-2.7,5.5c-1.8,1.5-4.1,2.2-6.8,2.2c-3.5,0-6.4-1.2-8.9-3.5
		c-2.4-2.3-3.6-5.1-3.6-8.4c0-3.3,1.2-6.1,3.7-8.3c2.5-2.2,5.6-3.3,9.3-3.3h2.9v7h-2c-1.8,0-3.3,0.1-4.4,1.1c-1.1,1-1.7,2.2-1.7,3.8
		c0,1.6,0.5,2.8,1.6,3.8c1.1,0.9,2.5,1.4,4.3,1.4h1.5v-2.6h-0.9h-1.8V77.3z"/>
	<rect x="708.1" y="68.5" class="st5" width="7.6" height="22.4"/>
	<polygon class="st5" points="732.1,74.9 732.1,90.9 724.4,90.9 724.4,74.9 718.6,74.9 718.6,68.5 737.9,68.5 737.9,74.9 	"/>
	<path class="st5" d="M750,79.7v5.9h-2.2v5.3h-7.6V76.7c0-2.8,0.9-4.9,2.6-6.4c1.7-1.5,4.1-2.3,7.3-2.3c3,0,5.2,0.7,6.7,2.1
		c1.4,1.4,2.2,3.5,2.2,6.4v14.5h-7.6v-14c0-0.9-0.1-1.5-0.4-1.8c-0.2-0.3-0.7-0.5-1.3-0.5c-1.2,0-1.8,0.8-1.8,2.3v2.8H750z"/>
	<polygon class="st5" points="762.9,68.5 770.6,68.5 770.6,81.8 770.6,84.4 773.4,84.4 773.8,84.4 773.8,90.9 771.8,90.9 
		762.9,90.9 762.9,82.9 	"/>
	<polygon class="st5" points="807.3,-22.9 746.6,47.6 793.4,47.6 793.7,56.9 810.3,56.9 810.3,22.9 793.4,22.9 793.4,32.5 
		782.3,32.5 807.3,2.6 	"/>
	<polygon class="st5" points="662.1,-22.9 601.4,47.6 648.3,47.6 648.3,56.9 665.1,56.9 665.1,22.9 648.3,22.9 648.3,32.5 
		637.1,32.5 662.1,2.6 	"/>
	<path class="st5" d="M753.1,16.3c-0.1,5.3-1.7,10.5-3.4,14.8c-4.2,10.2-12.1,18.7-22.3,22.9c-4.7,1.9-9.8,2.9-14.9,2.9
		c-22.4,0-40.6-18.2-40.6-40.6c0-22.4,18.8-40.5,41.2-40.5c15,13.6,16.5,31.3,16.5,31.3C724.2,3.4,719-0.5,712-2.2
		c-7,2.9-11.5,5.5-14.6,7.8c-1.8,7.4-1.8,14.4-0.3,21.1c6,4.2,11.2,6.9,15.5,8.1c9.9-4.1,18.8-9.3,25.1-18.1c2.2-3,4.2-5.9,6.1-9.1
		c1.7-2.9,4.2-10.9,4.4-11.5C748.2-3.9,753.3,4.2,753.1,16.3"/>
	<path class="st1" d="M672.2-7.2c0,0,0.3-0.2,0.9-0.3c0.6-0.2,1.5-0.5,2.6-0.7c2.3-0.6,5.7-1.2,9.9-1.5c2.1-0.1,4.4-0.2,6.9,0
		c2.5,0.2,5.1,0.5,7.9,1c5.5,1.1,11.4,3.1,17.1,6.3c1.4,0.8,2.8,1.6,4.1,2.5c0.7,0.4,1.3,0.9,1.9,1.4l0.9,0.7l0.2,0.1l0,0
		c0,0,0,0,0,0l0,0l-0.1-0.5c-0.1-0.7-0.3-1.4-0.5-2.1c-0.3-1.4-0.7-2.8-1.1-4.1c-1.6-5.3-3.9-9.8-6.1-13.3c-2.2-3.6-4.3-6.2-5.8-8
		c-0.8-0.9-1.4-1.6-1.8-2c-0.2-0.2-0.4-0.4-0.5-0.5c-0.1-0.1-0.1-0.2-0.1-0.2c0-0.1,1,0.8,2.7,2.5c1.6,1.7,3.8,4.3,6.1,7.9
		c2.3,3.6,4.6,8.1,6.3,13.4c0.4,1.3,0.8,2.7,1.2,4.2c0.2,0.7,0.3,1.4,0.5,2.2c0.1,0.6,0.2,1.1,0.3,1.7l0.2,1.1l0,0.3l0,0.1l-0.1,0
		l-0.1-0.1L725.4,4c-0.5-0.4-1.1-0.8-1.6-1.3l-0.9-0.7c-0.6-0.5-1.2-0.9-1.9-1.3c-1.3-0.9-2.6-1.7-4-2.5c-5.6-3.1-11.4-5.1-16.8-6.2
		c-2.7-0.6-5.3-0.9-7.8-1.1c-2.5-0.2-4.7-0.2-6.8-0.1c-4.2,0.2-7.5,0.7-9.8,1.2C673.4-7.5,672.2-7.1,672.2-7.2"/>
	<path class="st1" d="M708,31.8c0,0-0.5-0.1-1.3-0.3c-0.8-0.3-2-0.7-3.5-1.3c-1.5-0.6-3.2-1.4-5.1-2.5c-1-0.5-2-1.1-3-1.8
		c-0.5-0.3-1-0.7-1.6-1c-0.3-0.2-0.5-0.4-0.8-0.6c-0.3-0.2-0.6-0.5-0.9-0.7c-0.1-0.5-0.2-0.9-0.2-1.4c-0.1-0.4-0.1-0.8-0.2-1.3
		c-0.1-0.9-0.2-1.7-0.3-2.6c-0.2-1.8-0.3-3.6-0.3-5.5c0-1.9,0.1-3.8,0.3-5.6c0.1-0.9,0.2-1.8,0.3-2.6c0.1-0.4,0.1-0.9,0.2-1.3
		c0.1-0.5,0.2-1,0.3-1.4c0.3-0.2,0.6-0.5,0.9-0.7c0.3-0.2,0.5-0.4,0.8-0.6c0.5-0.4,1-0.7,1.6-1c1-0.7,2-1.2,3-1.8
		c1.9-1.1,3.7-1.9,5.1-2.5c1.5-0.6,2.7-1,3.5-1.3c0.8-0.3,1.3-0.4,1.3-0.3c0,0.1-1.7,0.8-4.5,2.1c-1.4,0.7-3.1,1.6-5,2.7
		c-0.9,0.5-1.9,1.2-2.9,1.8c-0.5,0.3-1,0.7-1.5,1c-0.3,0.2-0.5,0.4-0.8,0.6c-0.2,0.2-0.4,0.3-0.6,0.5c-0.1,0.3-0.1,0.7-0.2,1
		c-0.1,0.4-0.1,0.8-0.2,1.3c-0.1,0.8-0.2,1.7-0.3,2.6c-0.2,1.8-0.3,3.6-0.3,5.5c0,1.9,0.1,3.7,0.2,5.4c0.1,0.9,0.2,1.7,0.3,2.6
		c0.1,0.4,0.1,0.8,0.2,1.2c0.1,0.3,0.1,0.7,0.2,1c0.2,0.2,0.4,0.3,0.6,0.5c0.3,0.2,0.5,0.4,0.8,0.6c0.5,0.4,1,0.7,1.5,1.1
		c1,0.7,2,1.3,2.9,1.8c1.9,1.1,3.6,2,5,2.7C706.3,31.1,708.1,31.7,708,31.8"/>
	<path class="st1" d="M692.2,23.4c0.2,0,0.6,1.9,1.5,4.9c0.9,3,2.4,7.1,4.6,11.4c2.2,4.3,4.7,7.8,6.7,10.3c1.9,2.5,3.3,3.9,3.2,4
		c-0.1,0.1-1.6-1.2-3.7-3.6c-2.1-2.4-4.8-6-7-10.3c-2.3-4.3-3.7-8.6-4.4-11.7C692.3,25.3,692.1,23.4,692.2,23.4"/>
	<path class="st1" d="M671.4,31.8c-0.1,0,0.3-2.1,1.5-5.2c0.6-1.6,1.4-3.4,2.4-5.4c1-2,2.3-4.1,3.8-6.2c1.5-2.1,3-4,4.5-5.6
		c1.5-1.6,3-3,4.2-4.1c2.6-2.2,4.3-3.3,4.4-3.2c0.1,0.1-1.5,1.4-3.9,3.7c-2.4,2.3-5.5,5.6-8.4,9.8c-1.4,2.1-2.7,4.1-3.8,6
		c-1,1.9-1.9,3.7-2.6,5.2C672.3,29.9,671.6,31.8,671.4,31.8"/>
	<path class="st1" d="M708.5-28.8c0,0-0.2,0-0.7,0.1c-0.5,0-1.2,0.1-2.1,0.1c-0.9,0.1-2,0.2-3.3,0.4c-0.6,0.1-1.3,0.3-2.1,0.4
		c-0.7,0.1-1.5,0.4-2.4,0.6c-3.3,0.9-7.3,2.4-11.4,5c-2.1,1.3-4.1,2.9-6.1,4.7c-2,1.9-3.9,4.1-5.7,6.6c-3.5,5-6.2,11.3-7.1,18.4
		c-0.9,7.1,0,15,3.4,22.3c1.7,3.7,4,7.1,6.7,10.3c2.8,3.1,6.2,5.9,9.9,8.1c3.8,2.2,8,3.9,12.4,4.8c4.4,1,9.1,1.2,13.6,0.5
		c7.4-1,14.2-4.2,19.7-8.7c5.5-4.5,9.7-10.2,12.4-16.3c2.7-6.1,3.8-12.6,3.5-18.8c-0.2-3.1-0.7-6.1-1.5-8.9
		c-0.2-0.7-0.4-1.4-0.7-2.1c-0.3-0.7-0.5-1.3-0.8-2c-0.2-0.7-0.6-1.3-0.9-1.9L745.1-6c0-0.1-0.1-0.1-0.1-0.2
		c-0.2,0.7-0.5,1.4-0.7,2.1c-0.3,1-0.7,1.9-1.1,2.9c-0.4,1-0.8,1.8-1.2,2.7c-0.2,0.4-0.4,0.9-0.6,1.3c-0.2,0.4-0.5,0.9-0.7,1.3
		c-0.9,1.7-1.9,3.3-2.9,4.8c-1.1,1.5-2.1,2.9-3.2,4.3c-1,1.4-2.2,2.5-3.3,3.7c-0.6,0.6-1.1,1.1-1.7,1.7c-0.5,0.5-1.1,1.1-1.7,1.5
		c-0.6,0.5-1.1,1-1.6,1.4c-0.5,0.5-1.1,0.9-1.6,1.3c-1,0.9-2.1,1.6-3.1,2.3c-4,2.7-7.5,4.3-9.9,5.3c-1.2,0.5-2.1,0.8-2.8,1
		c-0.6,0.2-1,0.3-1,0.3c0,0,0.3-0.2,0.9-0.4c0.6-0.3,1.5-0.6,2.7-1.1c2.3-1.1,5.7-2.8,9.7-5.5c1-0.7,2-1.4,3.1-2.3
		c0.5-0.4,1.1-0.8,1.6-1.3c0.5-0.5,1.1-0.9,1.6-1.4c0.6-0.5,1.1-1,1.6-1.5c0.5-0.5,1.1-1.1,1.6-1.7c1-1.2,2.2-2.4,3.2-3.7
		c1.1-1.3,2.1-2.8,3.1-4.2c0.9-1.5,2-3.1,2.8-4.8c0.2-0.4,0.5-0.8,0.7-1.3c0.2-0.4,0.4-0.9,0.6-1.3c0.4-0.9,0.9-1.8,1.2-2.7
		c0.4-0.9,0.8-1.9,1.1-2.8c0.2-0.5,0.3-1,0.5-1.5l0.3-1.1l0.4-1.4c0.3,0.5,0.6,1,0.9,1.6l0.6,1.1c0.3,0.6,0.7,1.3,0.9,2
		c0.3,0.7,0.5,1.4,0.8,2c0.2,0.7,0.4,1.4,0.7,2.1c0.8,2.9,1.4,5.9,1.6,9.1c0.3,6.3-0.8,12.9-3.6,19.2c-2.7,6.2-7,12.1-12.7,16.7
		c-5.6,4.6-12.6,7.9-20.2,8.9c-4.7,0.7-9.5,0.5-14-0.5c-4.5-0.9-8.8-2.7-12.7-4.9c-3.8-2.3-7.3-5.1-10.2-8.3
		c-2.8-3.2-5.2-6.8-6.9-10.5c-3.4-7.5-4.3-15.6-3.4-22.8c1-7.3,3.8-13.7,7.4-18.7c1.8-2.5,3.8-4.7,5.8-6.6c2.1-1.9,4.2-3.5,6.3-4.7
		c4.2-2.6,8.2-4,11.6-4.9c0.8-0.2,1.6-0.4,2.4-0.5c0.8-0.1,1.5-0.2,2.1-0.3c1.3-0.2,2.4-0.2,3.3-0.3c0.9,0,1.6,0,2.1,0
		C708.2-28.8,708.5-28.8,708.5-28.8"/>
	<path class="st1" d="M708,31.8c0.1-0.2,2.1,0.5,5.3,1.2c1.6,0.4,3.6,0.7,5.8,1c2.2,0.3,4.6,0.5,7.2,0.5c2.6,0,5-0.1,7.2-0.3
		c2.2-0.2,4.2-0.5,5.9-0.8c3.3-0.6,5.3-1.2,5.4-1c0,0.1-1.9,0.9-5.2,1.7c-1.7,0.4-3.7,0.8-5.9,1c-2.2,0.3-4.7,0.4-7.3,0.4
		c-2.6-0.1-5.1-0.3-7.3-0.6c-2.2-0.4-4.2-0.8-5.9-1.2C709.9,32.8,708,31.9,708,31.8"/>
	<path class="st1" d="M665.4-34.7c0.2,0.2-15.9,19.3-36,42.8s-36.6,42.3-36.8,42.1c-0.2-0.2,15.9-19.3,36-42.8
		C648.7-16,665.2-34.9,665.4-34.7"/>
	<path class="st1" d="M659.4-42.9c0.3,0,0.5,10.6,0.5,23.7s-0.2,23.7-0.5,23.7c-0.3,0-0.5-10.6-0.5-23.7S659.1-42.9,659.4-42.9"/>
	<path class="st1" d="M662.2,10.7c0.3,0,0.5,10.9,0.5,24.3c0,13.4-0.2,24.3-0.5,24.3c-0.3,0-0.5-10.9-0.5-24.3
		C661.7,21.6,661.9,10.7,662.2,10.7"/>
	<path class="st1" d="M645,18.4c0.3,0,0.5,10.1,0.5,22.6c0,12.5-0.2,22.6-0.5,22.6c-0.3,0-0.5-10.1-0.5-22.6
		C644.5,28.5,644.7,18.4,645,18.4"/>
	<path class="st1" d="M668.2,44.7c0,0.3-19.4,0.5-43.3,0.5c-23.9,0-43.3-0.2-43.3-0.5c0-0.3,19.4-0.5,43.3-0.5
		C648.9,44.2,668.2,44.4,668.2,44.7"/>
	<path class="st1" d="M647.5,29.4c0,0.3-4.2,0.5-9.3,0.5c-5.1,0-9.3-0.2-9.3-0.5c0-0.3,4.2-0.5,9.3-0.5
		C643.3,28.9,647.5,29.1,647.5,29.4"/>
	<path class="st1" d="M662.2,19.5c0,0.3-4.3,0.5-9.6,0.5c-5.3,0-9.6-0.2-9.6-0.5c0-0.3,4.3-0.5,9.6-0.5
		C657.9,19,662.2,19.3,662.2,19.5"/>
	<path class="st1" d="M664.4,54.2c0,0.3-5.4,0.5-12.1,0.5c-6.7,0-12.1-0.2-12.1-0.5c0-0.3,5.4-0.5,12.1-0.5
		C659,53.7,664.4,53.9,664.4,54.2"/>
	<path class="st4" d="M627.2,36.7L661-3.1L627.2,36.7z"/>
	<path class="st1" d="M661-3.1c0.2,0.2-7.2,9.2-16.5,20.2c-9.3,11-17.1,19.8-17.3,19.6c-0.2-0.2,7.2-9.2,16.5-20.2
		C653.1,5.5,660.8-3.3,661-3.1"/>
	<path class="st1" d="M814.8-39.7c0.2,0.2-16.6,20.2-37.6,44.6c-21,24.5-38.2,44.2-38.4,44c-0.2-0.2,16.6-20.2,37.6-44.6
		C797.4-20.2,814.6-39.9,814.8-39.7"/>
	<path class="st1" d="M804.5-36.6c0.3,0,0.5,9.2,0.5,20.5s-0.2,20.5-0.5,20.5c-0.3,0-0.5-9.2-0.5-20.5S804.2-36.6,804.5-36.6"/>
	<path class="st1" d="M807.3,10.7c0.3,0,0.5,10.9,0.5,24.3c0,13.4-0.2,24.3-0.5,24.3c-0.3,0-0.5-10.9-0.5-24.3
		C806.8,21.6,807,10.7,807.3,10.7"/>
	<path class="st1" d="M790.1,18.4c0.3,0,0.5,10.1,0.5,22.6c0,12.5-0.2,22.6-0.5,22.6s-0.5-10.1-0.5-22.6
		C789.6,28.5,789.8,18.4,790.1,18.4"/>
	<path class="st1" d="M817.9,44.7c0,0.3-17.8,0.5-39.8,0.5c-22,0-39.8-0.2-39.8-0.5c0-0.3,17.8-0.5,39.8-0.5
		C800.1,44.2,817.9,44.4,817.9,44.7"/>
	<path class="st1" d="M792.6,29.4c0,0.3-4.2,0.5-9.3,0.5c-5.1,0-9.3-0.2-9.3-0.5c0-0.3,4.2-0.5,9.3-0.5
		C788.4,28.9,792.6,29.1,792.6,29.4"/>
	<path class="st1" d="M807.3,19.5c0,0.3-4.3,0.5-9.6,0.5c-5.3,0-9.6-0.2-9.6-0.5c0-0.3,4.3-0.5,9.6-0.5
		C802.9,19,807.3,19.3,807.3,19.5"/>
	<path class="st1" d="M809.5,54.2c0,0.3-5.4,0.5-12.1,0.5c-6.7,0-12.1-0.2-12.1-0.5c0-0.3,5.4-0.5,12.1-0.5
		C804.1,53.7,809.5,53.9,809.5,54.2"/>
	<path class="st1" d="M809-6.4c0.2,0.2-7.8,10-17.9,21.9c-10.1,11.9-18.5,21.4-18.7,21.2c-0.2-0.2,7.8-10,17.9-21.9
		C800.4,2.9,808.7-6.6,809-6.4"/>
	<path class="st1" d="M652.8,73.6c0,0,0.1,0,0.3-0.1c0.2,0,0.5-0.1,0.9-0.1c0.4,0,0.9,0,1.5,0.1c0.6,0.1,1.2,0.3,1.9,0.7
		c0.7,0.4,1.4,0.9,1.8,1.7c0.5,0.8,0.6,1.9,0.4,3c-0.2,1.1-0.9,2.2-1.9,2.8c-0.5,0.3-1.1,0.6-1.7,0.8c-0.3,0.1-0.6,0.2-0.9,0.2
		l-0.5,0.1c-0.1,0-0.1,0-0.1,0.1c0,1.3,0,2.6,0,4.1c0,0.6,0,1.3,0,2c-0.1,0,0.4,0,0.8,0c0.4,0,0.7-0.1,1.1-0.1
		c1.5-0.2,3.1-0.6,4.5-1.3c1.4-0.8,2.8-1.8,3.9-3.1c2.2-2.6,2.9-6.5,1.8-10c-0.6-1.7-1.8-3.3-3.3-4.4c-1.5-1.2-3.3-2-5.2-2.4
		c-0.8-0.2-1.6-0.3-2.4-0.4c-0.8,0-1.6,0-2.4,0c-1.6,0-3.2,0-4.8,0c-0.8,0-1.6,0-2.3,0l-0.4,0c0,0,0,0,0,0l0,0.1l0,1.2
		c0,1.5,0,3,0,4.5c0,5.8,0,11.2-0.1,16c2.6,0,4.9,0,7.1,0c0-4.7,0.1-8.6,0.1-11.2c0-1.3,0-2.4,0.1-3.1
		C652.7,73.9,652.7,73.6,652.8,73.6c0,0,0,0.4,0.1,1.1c0,0.7,0,1.7,0.1,3.1c0,2.7,0.1,6.7,0.1,11.7c-2.5,0-5.2,0-8.2,0
		c0-5,0-10.5-0.1-16.6c0-1.5,0-3,0-4.5l0-1.2l0-0.5c0-0.1,0-0.2,0-0.3l0.3,0l0.8,0c0.8,0,1.6,0,2.3,0c1.6,0,3.2,0,4.8,0
		c0.8,0,1.6,0,2.5,0c0.8,0.1,1.7,0.2,2.5,0.4c2,0.5,3.9,1.3,5.5,2.6c1.6,1.2,2.9,2.9,3.5,4.8c0.6,1.9,0.7,3.8,0.4,5.7
		c-0.3,1.9-1.1,3.6-2.3,5c-1.2,1.4-2.6,2.4-4.1,3.2c-1.5,0.8-3.1,1.2-4.7,1.4c-0.4,0-0.8,0.1-1.2,0.1l-0.6,0l-0.4,0l-0.3,0
		c-0.1,0-0.2,0-0.2-0.1c0-0.8,0-1.6,0-2.4c0-1.5,0-2.9,0-4.2c-0.1-0.4,0.3-0.3,0.5-0.4l0.5-0.1c0.3-0.1,0.6-0.1,0.9-0.2
		c0.6-0.2,1.1-0.4,1.6-0.7c1-0.6,1.6-1.5,1.8-2.5c0.2-1,0.1-2-0.3-2.7c-0.4-0.8-1-1.3-1.7-1.7c-0.6-0.4-1.2-0.6-1.8-0.7
		c-0.5-0.1-1-0.1-1.4-0.1C653.2,73.6,652.8,73.6,652.8,73.6"/>
	<path class="st1" d="M678.4,66.8c0,0-0.7,0.1-2,0.1c-1.3,0-3.1,0.1-5.4,0.1c0,2.7,0.1,6,0.1,9.7c0,3.7,0,7.8,0,12.1
		c2.4,0,4.7,0,6.9,0c0-3.1,0-6,0-8.6c0-2.7,0.1-5.1,0.1-7.1c0-2,0.1-3.6,0.1-4.7C678.3,67.4,678.4,66.8,678.4,66.8s0.1,0.6,0.1,1.7
		c0,1.1,0.1,2.7,0.1,4.7c0,2,0,4.4,0.1,7.1c0,2.8,0,5.9,0,9.3c-2.7,0-5.5,0-8.3,0c0-4.6,0-8.9,0-12.8c0-3.9,0.1-7.3,0.1-10.1
		c1.3,0,2.4,0,3.4,0.1c0.9,0,1.7,0,2.4,0.1C677.7,66.7,678.4,66.8,678.4,66.8"/>
	<path class="st1" d="M694.4,75.5c0,0,0.1,0.5,0.1,1.3c0,0.8,0,2,0.1,3.6c0.8,0,1.7,0,2.7,0c0,0.9,0,1.9,0,3c-0.4,0-0.8,0-1.2,0
		c-0.3,0-0.7,0-1.1,0c-0.7,0-1.5-0.2-2.3-0.5c-0.8-0.3-1.5-0.8-2.1-1.5c-0.6-0.7-0.9-1.6-1.1-2.5c-0.1-0.9-0.1-1.9,0.3-2.8
		c0.4-0.9,1-1.8,1.9-2.4c0.9-0.6,2-0.8,3-0.8c0.5,0,1,0,1.6,0c0.4,0,0.8,0,1.2,0c0-2,0-4.1,0-6.3c-0.5,0-1.1,0-1.6,0
		c-0.7,0-1.3,0-2,0c-1.3,0.1-2.6,0.3-3.9,0.7c-2.5,0.9-4.8,2.6-6.2,4.9c-1.2,1.9-1.6,4.2-1.5,6.4c0.1,2.2,1,4.3,2.3,6
		c1.3,1.6,3,3,4.9,3.7c1.8,0.8,3.8,1,5.7,0.9c1.9-0.1,3.7-0.6,5.1-1.6c1.5-0.9,2.6-2.3,3-3.8c0.2-0.7,0.3-1.5,0.3-2.3
		c0-0.8,0-1.5,0-2.2c0-1.4,0-2.6,0-3.8c-2.9,0-5.2-0.1-6.8-0.1c-0.8,0-1.4,0-1.9-0.1C694.6,75.6,694.4,75.6,694.4,75.5
		c0,0,0.2,0,0.6-0.1c0.4,0,1.1,0,1.9-0.1c1.7,0,4.1-0.1,7.2-0.1c0,1.3,0,2.7,0,4.2c0,0.7,0,1.5,0,2.2c0,0.8-0.1,1.6-0.3,2.4
		c-0.5,1.6-1.7,3.1-3.2,4.1c-1.5,1-3.4,1.6-5.4,1.7c-2,0.1-4.1-0.1-6-1c-2-0.8-3.7-2.2-5.2-3.9c-1.4-1.7-2.3-4-2.5-6.3
		c-0.2-2.3,0.3-4.8,1.6-6.9c1.6-2.5,4-4.3,6.6-5.2c1.3-0.5,2.7-0.7,4-0.8c0.7,0,1.3,0,2,0c0.8,0,1.5,0,2.3,0c0,2.6,0,5.2,0,7.6
		c-0.6,0-1.3,0-1.9,0c-0.5,0-1,0-1.5,0c-1,0-2,0.2-2.7,0.7c-0.8,0.5-1.3,1.3-1.6,2.1c-0.3,0.8-0.4,1.7-0.3,2.6
		c0.2,1.7,1.4,3,2.8,3.6c0.7,0.3,1.4,0.4,2.1,0.5c0.4,0,0.7,0,1.1,0c0.3,0,0.6,0,0.8,0c0-0.8,0-1.5,0-2.2c-1,0-1.9,0-2.7,0
		c0-1.7,0.1-3,0.1-3.9C694.3,76,694.3,75.5,694.4,75.5"/>
	<path class="st1" d="M714.7,66.8c0,0-0.7,0.1-2,0.1c-1.3,0-3.1,0.1-5.4,0.1c0,2.7,0.1,6,0.1,9.7c0,3.7,0,7.8,0,12.1
		c2.4,0,4.7,0,6.9,0c0-3.1,0-6,0-8.6c0-2.7,0.1-5.1,0.1-7.1c0-2,0.1-3.6,0.1-4.7C714.6,67.4,714.7,66.8,714.7,66.8s0.1,0.6,0.1,1.7
		c0,1.1,0.1,2.7,0.1,4.7c0,2,0,4.4,0.1,7.1c0,2.8,0,5.9,0,9.3c-2.7,0-5.5,0-8.3,0c0-4.6,0-8.9,0-12.8c0-3.9,0.1-7.3,0.1-10.1
		c1.3,0,2.4,0,3.4,0.1c0.9,0,1.7,0,2.4,0.1C714,66.7,714.7,66.8,714.7,66.8"/>
	<path class="st1" d="M731,73.2c0,0,0.5-0.1,1.5-0.1c1,0,2.3,0,4.1-0.1c0-1.7,0-3.7-0.1-6c-5.1,0-11.5,0.1-18.7,0.1
		c0,1.8,0,3.8,0,5.7c1.1,0,2.2,0,3.3,0c0.9,0,1.8,0,2.5,0c0,5.8,0,11.2,0,16c2.5,0,4.9,0,7,0c0.1-4.7,0.1-8.6,0.1-11.3
		c0-1.4,0.1-2.5,0.1-3.2C730.9,73.6,731,73.2,731,73.2s0.1,0.4,0.1,1.1c0,0.7,0,1.8,0.1,3.2c0,2.8,0.1,6.9,0.1,11.9
		c-2.5,0-5.3,0-8.2,0c0-4.8,0-10.1,0-15.9c-0.5,0-1.1,0-1.8,0c-1.4,0-2.7,0-4.1,0c0-2.4,0-4.8,0-7.1c7.7,0,14.5,0.1,19.9,0.1
		c0,2.6-0.1,5-0.1,6.9c-1.9,0-3.4-0.1-4.5-0.1C731.5,73.3,731,73.3,731,73.2"/>
	<path class="st1" d="M748.9,77.9c0,0-0.2,0-0.6,0.1c-0.4,0-1,0-1.7,0c0-0.5,0-1.1,0-1.7c0-0.6-0.1-1.3,0.1-2.1
		c0.1-0.4,0.2-0.8,0.6-1.1c0.3-0.3,0.8-0.5,1.3-0.5c0.4,0,1,0.1,1.4,0.5c0.4,0.5,0.4,1,0.5,1.5c0.1,2,0,4.2,0.1,6.7
		c0,2.3,0,4.9,0,7.6c2.2,0,4.6,0,7,0c0-3.4,0-6.9,0-10.6c0-1,0-1.9,0-2.9c0-1,0-1.9-0.2-2.9c-0.3-1.9-1.2-3.7-2.9-4.7
		c-1.3-0.8-3-1.1-4.5-1.2c-1.6-0.1-3.2,0-4.6,0.4c-1.5,0.4-2.8,1.2-3.8,2.2c-1,1.1-1.6,2.4-1.8,3.8c-0.2,1.4-0.1,2.9-0.2,4.3
		c0,1.4,0,2.8,0,4.1c0,2.6,0,5,0,7.3c2.6,0,5,0,7.1,0c0-2,0-3.7,0-5.3c0.8,0,1.5,0,2.2,0c0-1.8,0.1-3.2,0.1-4.2c0-0.5,0-0.9,0-1.1
		C748.9,78.1,748.9,77.9,748.9,77.9c0,0,0,0.1,0,0.4c0,0.3,0,0.6,0,1.1c0,1,0,2.6,0.1,4.5c-0.7,0-1.4,0-2.2,0c0,1.6,0,3.4,0,5.4
		c-2.4,0-5.2,0-8.1,0c0-2.5,0-5.1,0-7.9c0-1.3,0-2.7,0-4.1c0-1.4-0.1-2.9,0.1-4.4c0.2-1.5,0.9-3,2-4.2c1.1-1.2,2.6-2,4.1-2.4
		c1.6-0.4,3.2-0.5,4.9-0.5c1.6,0.1,3.4,0.4,4.9,1.3c0.9,0.5,1.7,1.3,2.2,2.3c0.5,0.9,0.8,1.9,1,2.9c0.2,1,0.2,2,0.2,3
		c0,1,0,1.9,0,2.9c0,3.9,0,7.7,0,11.3c-2.9,0-5.6,0-8.3,0c0-5.7,0.1-10.8,0.1-14.8c0-0.5-0.1-1-0.3-1.3c-0.2-0.3-0.7-0.4-1.1-0.4
		c-0.4,0-0.8,0.1-1,0.4c-0.3,0.2-0.4,0.6-0.5,0.9c-0.1,0.7-0.1,1.4-0.1,2c0,0.6,0,1.1,0,1.5c0.7,0,1.2,0,1.5,0
		C748.8,77.9,748.9,77.9,748.9,77.9"/>
	<path class="st1" d="M761.9,66.8c0,0,0.1,0.6,0.1,1.7c0,1.1,0.1,2.7,0.1,4.6c0,3.9,0.1,9.4,0.1,15.7c3.2,0,6.6,0,10.2,0
		c0-2,0-4,0-5.8c-1.2,0-2.2,0-3.2,0c0-3.3,0-6.3,0-9.1c0-2.6,0-4.9,0.1-6.9c-2.3,0-4.1-0.1-5.4-0.1
		C762.6,66.9,761.9,66.8,761.9,66.8c0,0,0.7-0.1,2-0.1c0.7,0,1.5,0,2.4-0.1c1,0,2.2,0,3.4,0c0,4.1,0.1,9.5,0.1,15.8c1,0,2.1,0,3.2,0
		c0,2.2,0,4.7,0,7.2c-4.1,0-7.9,0-11.6,0c0-3.4,0-6.5,0.1-9.3c0-2.7,0.1-5.1,0.1-7.1c0-2,0.1-3.6,0.1-4.6
		C761.8,67.4,761.8,66.8,761.9,66.8"/>
</g>
</svg>
